<?xml version="1.0" standalone="no"?>
<!DOCTYPE svg PUBLIC "-//W3C//DTD SVG 1.1//EN" "http://www.w3.org/Graphics/SVG/1.1/DTD/svg11.dtd" >
<svg xmlns="http://www.w3.org/2000/svg">
<metadata></metadata>
<defs>
<font id="Futura-LightObliqueRegular" horiz-adv-x="1269" >
<font-face units-per-em="2048" ascent="1638" descent="-410" />
<missing-glyph horiz-adv-x="634" />
<glyph horiz-adv-x="0" />
<glyph horiz-adv-x="2048" />
<glyph unicode=" "  horiz-adv-x="634" />
<glyph unicode="&#x09;" horiz-adv-x="634" />
<glyph unicode="&#xa0;" horiz-adv-x="634" />
<glyph unicode="!" horiz-adv-x="655" d="M252 47v4t2 4v2v4q6 35 33.5 59.5t62.5 24.5v2q33 -2 53.5 -22.5t20.5 -48.5v-4v-2q-2 -2 -2 -4.5v-4.5q-6 -35 -35 -58t-63 -23q-33 0 -52.5 19t-19.5 48zM326 293l196 1251h99l-197 -1251h-98z" />
<glyph unicode="&#x22;" horiz-adv-x="569" d="M305 1053l57 491h99l-101 -491h-55zM539 1053l57 491h98l-100 -491h-55z" />
<glyph unicode="#" d="M195 467l16 98h262l98 332h-252l17 98h266l135 435h103l-135 -435h278l135 435h103l-138 -435h226l-17 -98h-241l-105 -332h242l-17 -98h-258l-149 -467h-94l147 467h-276l-142 -467h-98l141 467h-247zM571 565h279l100 332h-278z" />
<glyph unicode="$" d="M219 311l90 41q27 -117 105 -197.5t202 -78.5h4.5h4.5h2h4v2l112 708q-4 0 -8 2.5t-8 4.5q-6 4 -12 7t-13 7q-98 53 -180 119.5t-82 191.5q0 12 1 25.5t3 27.5q27 164 144 271.5t278 120.5l35 217h92l-35 -219q94 -14 170 -70.5t109 -144.5l-86 -60q-27 63 -79 116.5 t-130 61.5l-96 -612q6 -6 11 -9t11 -5q12 -8 25.5 -14.5t26.5 -14.5q100 -53 177 -120.5t77 -194.5q0 -14 -1.5 -31t-5.5 -35q-27 -166 -162 -291t-296 -153l-37 -232h-92l34 228q-160 4 -262 91t-133 240zM541 1139q0 -86 55 -135.5t123 -88.5q10 -6 20.5 -11t20.5 -11v2 l90 571q-113 -2 -202 -92t-105 -198q-2 -8 -2 -17.5v-19.5zM723 82q129 29 228.5 127t119.5 227q2 10 3 20.5t1 18.5q-2 88 -62.5 142.5t-131.5 93.5q-14 8 -27.5 15t-26.5 13v2z" />
<glyph unicode="%" horiz-adv-x="1359" d="M188 2l1164 1577l61 -35l-1167 -1579zM252 1202q0 12 1 24.5t3 24.5q23 133 126 219t234 86v3q119 -2 194 -72t73 -184v-12.5t-2 -12.5q0 -8 -1 -14.5t-1 -12.5q-20 -131 -125 -216t-234 -85q-117 0 -192.5 70t-75.5 182zM340 1221q0 -78 55.5 -131.5t136.5 -53.5 q90 0 168 63.5t93 151.5q0 4 1 8.5t1 8.5v8v8q0 80 -54.5 133t-138.5 53v3q-90 -2 -168 -66t-92 -156q-2 -8 -2 -15v-15zM721 238q0 10 1 22t3 25q23 133 126 219t234 86v2q119 -2 194 -71.5t73 -184.5v-12.5t-2 -12.5q0 -8 -1 -14t-1 -12q-20 -131 -125 -215t-234 -84 q-117 0 -192.5 69.5t-75.5 182.5zM809 254q0 -78 56.5 -131t138.5 -53q90 0 166.5 63.5t91.5 151.5q2 10 2 18v16q0 80 -55.5 132.5t-137.5 52.5v2q-90 -2 -167 -65.5t-93 -155.5q-2 -8 -2 -15.5v-15.5z" />
<glyph unicode="&#x26;" horiz-adv-x="1314" d="M100 311q0 16 1 31.5t3 32.5q27 168 157 284.5t280 206.5q31 18 61.5 36t61.5 34q-6 12 -13.5 24.5t-15.5 24.5q-31 55 -57.5 113.5t-26.5 126.5q0 12 1 24.5t3 24.5q18 123 122.5 210t225.5 87q109 0 173.5 -67.5t64.5 -170.5q0 -12 -1 -24.5t-3 -24.5 q-20 -131 -122 -217t-227 -164l299 -518l230 215l69 -41l-253 -246l186 -313h-107l-153 256q-84 -63 -172 -121.5t-178 -99.5q-66 -31 -132.5 -48.5t-132.5 -17.5q-154 0 -250 98.5t-94 243.5zM201 328q0 -113 69.5 -191t188.5 -78q53 0 108.5 16.5t112.5 43.5 q61 29 121.5 66.5t118.5 78.5q25 16 48 33.5t46 34.5l-305 528l-111 -65q-23 -14 -46.5 -28.5t-45.5 -29.5q-104 -63 -193.5 -148t-107.5 -204q-2 -14 -3 -28.5t-1 -28.5zM648 1246.5q-1 -9.5 1 -19.5q0 -47 17.5 -90t40.5 -84q0 -2 2 -5.5t2 -5.5q8 -16 16 -31.5t16 -31.5 q16 12 33 22.5t33 22.5q80 49 148.5 107.5t82.5 154.5q2 8 2 15.5v15.5q0 68 -44 115t-115 47v2q-84 -2 -151.5 -68.5t-80.5 -148.5q-2 -8 -3 -17.5z" />
<glyph unicode="'" horiz-adv-x="454" d="M365 1053l57 491h98l-100 -491h-55z" />
<glyph unicode="(" horiz-adv-x="491" d="M186 41v56.5t2 56.5q4 119 15.5 234.5t27.5 213.5q16 102 42 224t61 249q39 141 89 276.5t112 243.5v2l65 -53q-98 -225 -168 -461.5t-108 -480.5q-20 -129 -30.5 -260t-10.5 -264q0 -96 6 -194.5t18 -194.5l-84 -51q-20 86 -28.5 190t-8.5 213z" />
<glyph unicode=")" horiz-adv-x="491" d="M86 -311q41 94 77 190t68 191q43 133 76 267t53 265q23 139 33 276.5t10 270.5q0 100 -6 199.5t-18 193.5v2l86 53q20 -86 28.5 -188t8.5 -211q0 -31 -1 -62.5t-3 -62.5q-4 -125 -16.5 -246.5t-28.5 -224.5q-16 -100 -42 -218t-59 -239q-41 -137 -90 -269t-108 -238z" />
<glyph unicode="*" horiz-adv-x="1267" d="M467 1243l47 96l274 -102l39 307h101l-56 -307l308 102l14 -96l-309 -88l149 -244l-90 -59l-133 254l-217 -254l-72 57l226 246z" />
<glyph unicode="+" d="M186 475l15 98h475l76 476h98l-76 -476h475l-14 -98h-475l-76 -475h-98l76 475h-476z" />
<glyph unicode="," horiz-adv-x="634" d="M123 -317l215 469l88 -29l-244 -463z" />
<glyph unicode="-" horiz-adv-x="389" d="M96 608l15 92h389l-15 -92h-389z" />
<glyph unicode="." horiz-adv-x="634" d="M242 47v4t2 4v2v4q6 35 33.5 59.5t62.5 24.5v2q33 -2 53.5 -22.5t20.5 -48.5v-4v-2q-2 -2 -2 -4.5v-4.5q-6 -35 -35 -58t-64 -23q-33 0 -52 19t-19 48z" />
<glyph unicode="/" horiz-adv-x="1310" d="M33 -252l1403 1942l65 -37l-1399 -1944z" />
<glyph unicode="0" d="M186 612q0 45 3.5 87t9.5 81q8 55 24.5 114.5t40.5 121.5q80 205 239 376t380 171v2q223 -2 327.5 -174t120.5 -379q0 -20 1 -40t1 -38q0 -39 -3 -78t-9 -76q-10 -61 -28.5 -127.5t-47.5 -136.5q-82 -201 -237.5 -368.5t-376.5 -167.5q-219 0 -321.5 166.5t-119.5 369.5 q-2 23 -3 47.5t-1 48.5zM285 614q0 -20 1 -39.5t1 -39.5q14 -174 97 -319.5t263 -145.5v2q182 -2 311 145.5t197 323.5q25 61 42 122.5t26 116.5q4 31 7 65t3 70q0 33 -2 67t-8 69q-23 158 -104 288.5t-251 130.5t-293.5 -132t-195.5 -289q-33 -72 -53.5 -141.5 t-28.5 -127.5q-6 -39 -9 -80t-3 -86z" />
<glyph unicode="1" d="M616 1452l62 92h295l-244 -1544h-98l229 1452h-244z" />
<glyph unicode="2" d="M141 0l676 633q27 23 55.5 50.5t59.5 55.5q84 84 157.5 180.5t88.5 196.5q4 16 4 29.5v28.5q0 129 -88 212.5t-224 83.5q-158 0 -279.5 -103t-141.5 -261l-99 2q16 82 46 153.5t96 137.5q55 53 125.5 91t142.5 56q33 8 63.5 12.5t61.5 4.5q174 0 285.5 -107.5 t111.5 -273.5q0 -16 -1 -35t-5 -37q-20 -131 -108.5 -241.5t-188.5 -206.5q-18 -18 -37.5 -37t-38.5 -35l-528 -498h733l-14 -92h-953z" />
<glyph unicode="3" d="M240 311v16.5t2 16.5q0 8 1 16.5t3 16.5l98 2v-14.5v-12.5q0 -125 72.5 -203.5t208.5 -78.5q145 0 267 106.5t144 249.5q4 16 4 30.5v28.5q0 125 -86 198t-215 73v2l15 92q137 2 246.5 90t132.5 229q2 12 3 24.5t1 23.5q-2 109 -76 181t-187 72q-133 0 -225 -79.5 t-121 -212.5l-98 2q41 174 161 278.5t300 104.5q150 0 247 -94.5t97 -237.5v-16.5t-2 -16.5q0 -8 -1 -16t-3 -17q-18 -119 -95 -215t-192 -143q96 -39 147.5 -125t51.5 -190v-28.5t-4 -31.5q-31 -193 -181.5 -322.5t-345.5 -129.5q-156 0 -263 91t-107 240z" />
<glyph unicode="4" d="M72 293l2 12l1124 1292h12l-192 -1212h217l-14 -92h-217l-48 -293h-98l47 293h-833zM266 385h654l143 913h-12l-783 -901z" />
<glyph unicode="5" d="M106 233l97 39q47 -92 138 -147t200 -55q195 0 346 130t182 324q4 16 5 33.5t1 34.5q-2 158 -112.5 261t-276.5 103q-45 0 -86 -8t-80 -22q-20 -8 -39.5 -17.5t-40.5 -21.5l303 657h588l-14 -92h-516l-195 -418q31 8 60.5 11.5t58.5 3.5q201 0 325 -127t124 -316 q0 -20 -1.5 -40.5t-5.5 -43.5q-39 -236 -225 -389t-420 -153q-139 0 -249.5 67.5t-166.5 185.5z" />
<glyph unicode="6" d="M162 432v20.5t2 22.5q0 10 1 20.5t3 20.5q14 86 47 159t86 142q8 8 16.5 18.5t16.5 20.5l610 709l70 -60l-416 -481l4 -4q51 18 103.5 28.5t107.5 10.5q201 0 331 -133t128 -326v-20.5t-2 -20.5q0 -12 -1 -22.5t-3 -20.5q-16 -102 -73.5 -198.5t-139.5 -172.5 q-90 -84 -200 -124.5t-224 -40.5q-203 0 -335 128t-132 324zM260 449q0 -162 109.5 -270.5t277.5 -108.5v2q184 -2 338 129t182 317q2 8 3 17.5t1 17.5q2 8 2.5 17.5t0.5 17.5q0 160 -109 269.5t-277 109.5q-186 0 -339.5 -132.5t-182.5 -316.5q-2 -18 -4 -35.5t-2 -33.5z " />
<glyph unicode="7" d="M88 43l1223 1409h-938l14 92h1120l-1351 -1560z" />
<glyph unicode="8" d="M244 336q0 16 2 32.5t4 32.5q23 139 102.5 240.5t212.5 161.5q-80 43 -124 122t-42 173v13t2 15q0 8 1 15.5t1 13.5q29 176 167.5 292t312.5 116q158 0 256 -94.5t98 -243.5q0 -16 -1 -33.5t-5 -36.5q-16 -109 -90 -206t-183 -146q98 -51 147.5 -131t47.5 -189 q0 -20 -1 -39.5t-5 -42.5q-29 -184 -181.5 -302.5t-334.5 -118.5q-164 0 -275.5 99t-111.5 257zM346 358q0 -123 86 -205.5t215 -82.5q141 0 261 99t143 243q0 6 1 13t1 13q2 6 2 13.5v13.5q0 123 -87 206t-214 83v2q-143 -2 -262 -101.5t-142 -242.5q-2 -14 -3 -27.5 t-1 -26.5zM500 1106q0 -111 76.5 -185.5t193.5 -74.5q129 0 236.5 91t128.5 220q2 12 3 24.5t1 22.5q0 113 -78 189.5t-193 76.5v3q-129 -2 -236.5 -94.5t-127.5 -221.5q-2 -14 -3 -26.5t-1 -24.5z" />
<glyph unicode="9" d="M244 942v20.5t2 22.5q0 10 1 20.5t3 20.5q35 225 223.5 381t411.5 156q209 0 339 -129t130 -328q0 -20 -2 -44t-6 -46q-14 -94 -57.5 -174t-108.5 -156l-609 -702l-71 59l420 481l-5 4q-10 -6 -20 -9t-21 -7q-43 -12 -84.5 -19.5t-87.5 -7.5q-199 0 -328.5 132.5 t-129.5 324.5zM340 956q0 -162 110.5 -270t278.5 -108q184 0 337 131t181 315q4 18 5 36.5t1 35.5q0 160 -108.5 267t-274.5 107v3q-184 -2 -338.5 -132.5t-185.5 -316.5q-2 -16 -4 -33.5t-2 -34.5z" />
<glyph unicode=":" horiz-adv-x="634" d="M242 47v4t2 4v2v4q6 35 33.5 59.5t62.5 24.5v2q33 -2 53.5 -22.5t20.5 -48.5v-4v-2q-2 -2 -2 -4.5v-4.5q-6 -35 -35 -58t-64 -23q-33 0 -52 19t-19 48zM373 870v5.5v5.5q6 35 34.5 59.5t63.5 24.5v2q33 -2 52.5 -22.5t19.5 -49.5v-4v-2q-2 -2 -2 -4v-4q-4 -35 -33 -59.5 t-64 -24.5q-33 0 -53 20.5t-18 52.5z" />
<glyph unicode=";" horiz-adv-x="634" d="M123 -317l215 469l88 -29l-244 -463zM385 870v5.5v5.5q6 35 35 59.5t63 24.5v2q33 -2 52.5 -22.5t19.5 -49.5v-4v-2q-2 -2 -2 -4v-4q-4 -35 -32.5 -59.5t-63.5 -24.5q-33 0 -53.5 20.5t-18.5 52.5z" />
<glyph unicode="&#x3c;" d="M184 471l19 109l1120 456l-14 -94l-1008 -418l870 -440l-14 -94z" />
<glyph unicode="=" d="M158 301l16 98h1049l-17 -98h-1048zM213 649l16 99h1049l-16 -99h-1049z" />
<glyph unicode="&#x3e;" d="M109 -10l14 94l1014 440l-877 418l14 94l977 -456l-18 -109z" />
<glyph unicode="?" horiz-adv-x="1005" d="M270 545q0 12 1 24.5t3 24.5q23 141 117 210.5t225 102.5q8 2 15.5 4t15.5 4q121 31 206 81.5t108 193.5q0 6 1 12t1 15q2 6 2 12v12q0 96 -61.5 162.5t-170.5 66.5q-115 0 -203 -74.5t-104 -185.5q-2 -23 -5 -45t-3 -45v-9v-9l-94 2q0 31 1 63.5t7 65.5 q23 145 145.5 236.5t265.5 93.5h2h5q147 0 231 -83t84 -216q0 -16 -1 -34t-5 -36q-27 -174 -132.5 -251t-264.5 -116q-100 -25 -184.5 -65.5t-102.5 -161.5q-2 -10 -3 -19.5t-1 -19.5q2 -80 56 -130t142 -50q104 0 172 72.5t82 164.5v3h99q-14 -141 -120 -236.5t-253 -95.5 q-121 0 -200 71.5t-79 184.5zM422 47v4t2 4v2v4q6 35 33.5 59.5t62.5 24.5v2q33 -2 53.5 -22.5t20.5 -48.5v-4v-2q-2 -2 -2 -4.5v-4.5q-6 -35 -35 -58t-63 -23q-33 0 -52.5 19t-19.5 48z" />
<glyph unicode="@" horiz-adv-x="1638" d="M195 645q0 33 3 65.5t7 65.5q53 328 317 557.5t576 229.5q268 0 439 -156t171 -401q0 -27 -2 -52.5t-6 -52.5q-31 -186 -148.5 -334.5t-253.5 -214.5q-43 -23 -86 -34t-84 -11q-53 0 -91 25.5t-46 75.5q-16 -12 -32.5 -22.5t-32.5 -18.5q-55 -31 -110.5 -45.5 t-106.5 -14.5q-115 0 -173.5 67.5t-58.5 170.5q0 16 2 31.5t4 31.5q6 37 16.5 74t24.5 76q68 182 217.5 333.5t337.5 151.5q72 0 132.5 -36t93.5 -101v2l45 96h90l-316 -663q-12 -29 -22 -53.5t-10 -45.5q2 -20 18 -34.5t61 -14.5q33 0 67 13.5t69 35.5q80 51 151.5 142.5 t114.5 191.5q14 33 25.5 67t15.5 66q4 23 6 44.5t2 41.5q-2 219 -162 350.5t-373 131.5q-285 0 -519 -215t-279 -500q-4 -27 -6 -52.5t-2 -52.5q0 -248 168.5 -421t418.5 -173h15.5h15.5q164 6 316.5 77t257.5 202l114 2q-113 -164 -305 -264t-428 -100q-295 0 -477 190 t-182 475zM567 575q2 -74 46 -128t135 -54h3h3v2q8 -2 16 -1t16 3q80 14 153 71.5t116 125.5q8 10 14 21.5t10 21.5l146 303q4 8 6 19.5t2 25.5q0 10 -1 20.5t-5 20.5q-12 49 -56.5 90t-119.5 41q-12 0 -24.5 -1t-25.5 -5q-106 -23 -205.5 -125t-160.5 -221q-25 -49 -41 -96 t-23 -88q-2 -10 -3 -21.5t-1 -24.5z" />
<glyph unicode="A" horiz-adv-x="1312" d="M10 0l899 1595l394 -1595h-101l-127 508h-678l-286 -508h-101zM449 600h604l-183 746z" />
<glyph unicode="B" horiz-adv-x="1157" d="M166 0l244 1544h309q88 -2 168 -16.5t137 -75.5q47 -45 66.5 -105.5t19.5 -127.5q0 -20 -1 -42t-5 -44q-16 -106 -71.5 -184.5t-158.5 -131.5q123 -27 194 -113t71 -210q0 -14 -1 -32t-5 -34q-14 -94 -62.5 -176t-130.5 -143q-27 -20 -53.5 -36t-52.5 -26 q-66 -31 -132.5 -39t-140.5 -8h-395zM279 92h235q4 -2 9 -2h9h45.5t45.5 2q55 2 110 14.5t107 43.5q78 47 129 117.5t65 156.5q2 14 3 27.5t1 27.5q0 70 -30.5 129.5t-89.5 91.5q-39 23 -89.5 33t-103.5 12q-33 2 -64.5 3.5t-60.5 1.5l-217 2zM397 844h170q6 -2 12.5 -2 h12.5q39 0 74.5 1t70.5 7q29 6 57.5 17.5t59.5 31.5q74 47 107.5 107.5t46.5 140.5q4 16 4 29.5v27.5q0 59 -22.5 111.5t-69.5 85.5q-43 31 -96.5 39t-108.5 10h-25.5h-25.5l-170 2z" />
<glyph unicode="C" horiz-adv-x="1513" d="M186 651q0 29 3.5 58.5t7.5 58.5q51 330 327.5 562.5t603.5 232.5q139 0 265.5 -52.5t214.5 -148.5v2l-21 -135q-72 104 -199.5 170.5t-267.5 70.5h-7h-5q-289 0 -529.5 -213t-285.5 -497q-4 -25 -6 -49.5t-2 -48.5q0 -106 36.5 -204t102.5 -175q84 -92 205 -152.5 t258 -60.5q49 0 105.5 10t111.5 26q94 31 184 82.5t154 116.5l-23 -133q-123 -92 -262 -142t-283 -50q-293 0 -490.5 193.5t-197.5 477.5z" />
<glyph unicode="D" horiz-adv-x="1335" d="M166 0l244 1544h278q170 -2 303 -40t240 -156q84 -90 125 -206t41 -243q0 -33 -3 -64.5t-8 -66.5q-27 -160 -110.5 -306.5t-216.5 -258.5q-25 -20 -49.5 -39t-48.5 -33q-121 -78 -247 -104.5t-270 -26.5h-278zM279 92h178h15q144 0 271 37q134 39 263 147 q115 98 187.5 226.5t94.5 265.5q4 29 6 57.5t2 55.5q0 115 -37.5 218t-113.5 183q-94 100 -211 134t-262 34l-178 2z" />
<glyph unicode="E" horiz-adv-x="1038" d="M166 0l244 1544h737l-14 -92h-639l-88 -561h622l-14 -92h-623l-112 -707h639l-15 -92h-737z" />
<glyph unicode="F" horiz-adv-x="909" d="M166 0l244 1544h622l-14 -92h-524l-88 -561h509l-14 -92h-510l-127 -799h-98z" />
<glyph unicode="G" horiz-adv-x="1687" d="M184 649q0 29 3 57.5t8 57.5q53 332 326.5 565.5t604.5 233.5q211 0 365 -97.5t248 -263.5l-90 -61q-78 152 -216.5 240.5t-326.5 88.5q-283 0 -525.5 -210.5t-285.5 -489.5q-4 -27 -6 -54.5t-2 -56.5q0 -248 169 -418.5t429 -170.5q23 0 44 2t44 4q102 14 203.5 57 t189.5 107q113 84 170 184t82 225l-553 2l14 92h652q-20 -147 -70.5 -275t-171.5 -241q-100 -92 -223 -152.5t-252 -80.5q-37 -8 -76 -11t-76 -3q-291 0 -484.5 194.5t-193.5 474.5z" />
<glyph unicode="H" horiz-adv-x="1466" d="M166 0l244 1544h98l-102 -655h937l103 655h98l-244 -1544h-98l127 797h-938l-127 -797h-98z" />
<glyph unicode="I" horiz-adv-x="430" d="M166 0l244 1544h98l-244 -1544h-98z" />
<glyph unicode="J" horiz-adv-x="446" d="M-270 -156l80 56q20 -55 65 -93t107 -38q94 0 136 63.5t58 140.5q2 14 5 26.5t5 27.5l240 1517h98l-239 -1515q-23 -145 -90.5 -249t-235.5 -104q-84 0 -145.5 46.5t-83.5 121.5z" />
<glyph unicode="K" horiz-adv-x="1165" d="M166 0l244 1544h98l-113 -721l846 721h131l-872 -743l676 -801h-129l-625 737l-47 -41l-111 -696h-98z" />
<glyph unicode="L" horiz-adv-x="669" d="M166 0l244 1544h98l-229 -1452h393l-15 -92h-491z" />
<glyph unicode="M" horiz-adv-x="1837" d="M18 0l584 1595l346 -1405l791 1405l80 -1595h-95l-61 1278h-4l-750 -1329l-325 1329h-4l-467 -1278h-95z" />
<glyph unicode="N" horiz-adv-x="1726" d="M166 0l248 1565l1079 -1368l213 1347h98l-252 -1595l-1077 1378l-211 -1327h-98z" />
<glyph unicode="O" horiz-adv-x="1748" d="M186 649q0 16 1 30.5t1 31.5q2 14 4.5 29.5t4.5 29.5q51 326 324.5 559.5t600.5 233.5v2q297 -2 491.5 -196.5t194.5 -481.5q0 -18 -1 -38t-3 -40q-2 -10 -3 -19.5t-3 -19.5q-51 -326 -326.5 -558t-601.5 -232q-295 0 -489.5 193.5t-194.5 475.5zM287 659 q0 -248 170 -418.5t430 -170.5q287 0 527.5 207.5t285.5 492.5q4 29 6 54.5t2 52.5q0 250 -170 421.5t-430 171.5v3q-289 -2 -528.5 -209t-284.5 -494q-4 -27 -6 -54.5t-2 -56.5z" />
<glyph unicode="P" horiz-adv-x="966" d="M166 0l244 1544h272q90 -2 174 -16.5t145 -75.5q49 -47 73 -110.5t24 -135.5v-17t-2 -18q0 -10 -1 -18t-3 -18q-2 -16 -6.5 -33t-10.5 -33q-20 -68 -61 -132.5t-101 -107.5q-57 -43 -120.5 -64.5t-128.5 -27.5q-27 -4 -54.5 -5t-54.5 -1l-174 2l-117 -733h-98zM395 825 h178h17q66 -1 128 13q70 16 138 69q59 47 93 105.5t44 126.5q2 6 3 13t1 15v15.5v13.5q0 57 -19.5 108.5t-59.5 84.5q-45 39 -104.5 49t-123.5 12h-17h-18l-161 2z" />
<glyph unicode="Q" horiz-adv-x="1748" d="M186 647q0 29 3.5 59.5t7.5 63.5q53 330 326.5 561.5t600.5 231.5q293 0 488.5 -192.5t195.5 -475.5q0 -29 -3 -58.5t-7 -60.5q-27 -162 -106.5 -299t-206.5 -260l168 -217h-133l-113 164q-82 -61 -175 -103.5t-190 -62.5q-43 -8 -87 -13t-85 -5q-297 0 -490.5 191 t-193.5 476zM287 659q0 -250 171 -419.5t435 -169.5q27 0 52.5 2t51.5 8q92 14 182.5 55t168.5 96l-322 402h139l260 -340q109 98 180.5 213t92.5 252q4 29 7 58q2 18 2 35q0 12 -1 23q0 250 -165 423t-431 173q-287 0 -528.5 -206.5t-286.5 -493.5q-4 -27 -6 -54.5 t-2 -56.5z" />
<glyph unicode="R" horiz-adv-x="999" d="M166 0l244 1544h192q94 -2 182 -12t158 -68q59 -45 85 -111.5t26 -142.5q0 -18 -1 -37.5t-5 -39.5q-33 -201 -175 -303q-139 -101 -324 -101h-7v2l389 -731h-113l-387 731h-49l-117 -731h-98zM395 823h125h23q61 1 121 9q72 10 137 61q63 45 100 109.5t47 134.5q2 8 3 15 t1 15v13.5v15.5q0 70 -29.5 129t-93.5 90q-37 18 -82 25.5t-92 9.5h-37.5h-35.5h-12.5h-12.5l-63 2z" />
<glyph unicode="S" horiz-adv-x="1114" d="M137 309l92 41q29 -125 110 -202.5t220 -77.5q152 0 283 105.5t155 258.5q2 10 2 19.5v17.5q0 90 -61 145.5t-135 94.5q-16 10 -33.5 19t-34.5 18l-256 149q-57 39 -89 93q-30 51 -30 116v8q0 14 1 28.5t4 28.5q27 172 154.5 282t301.5 110q117 0 210 -58.5t132 -158.5v2 l-78 -58q-39 82 -107.5 131t-176.5 49q-125 0 -221.5 -87t-116.5 -207q-2 -8 -2 -17.5v-19.5q0 -88 60.5 -140.5t133.5 -91.5q10 -4 20.5 -9t20.5 -11l271 -152q66 -47 99.5 -106.5t33.5 -136.5q0 -14 -1 -32t-5 -34q-29 -180 -181.5 -304t-328.5 -140q-10 0 -21.5 -1 t-23.5 -1q-162 0 -266.5 90t-135.5 239z" />
<glyph unicode="T" horiz-adv-x="921" d="M242 1452l14 92h897l-14 -92h-400l-229 -1452h-98l229 1452h-399z" />
<glyph unicode="U" horiz-adv-x="1351" d="M221 373q0 49 7.5 100t15.5 107l151 964h99l-148 -934q-2 -20 -5 -37.5t-7 -35.5q-4 -37 -7 -73t-3 -71q0 -47 9 -92t32 -82q35 -57 101 -92t138 -49q20 -4 42 -6t42 -2q33 0 70 5t73 15q63 18 123 50t103 79q61 66 87.5 151t43.5 173q2 16 5 32.5t5 32.5v2l148 934h98 l-152 -962q0 -4 -1 -6.5t-1 -6.5q-18 -115 -48 -216t-122 -195q-70 -68 -158 -111t-180 -57q-29 -6 -56.5 -8t-53.5 -2q-117 0 -221.5 45t-169.5 133q-33 53 -46.5 105t-13.5 110z" />
<glyph unicode="V" horiz-adv-x="1136" d="M254 1544h98l250 -1319h4l666 1319h98l-813 -1595z" />
<glyph unicode="W" horiz-adv-x="2263" d="M268 1544h99l225 -1327l799 1405l356 -1405l637 1327h98l-772 -1595l-364 1427l-814 -1427z" />
<glyph unicode="X" horiz-adv-x="1011" d="M25 0l546 788l-286 756h108l250 -663l459 663h108l-522 -756l299 -788h-106l-267 698l-483 -698h-106z" />
<glyph unicode="Y" horiz-adv-x="1144" d="M252 1544h108l332 -782l578 782h108l-653 -885l-104 -659h-99l105 659z" />
<glyph unicode="Z" horiz-adv-x="1163" d="M25 0l1171 1452h-852l14 92h1024l-1171 -1452h915l-14 -92h-1087z" />
<glyph unicode="[" horiz-adv-x="614" d="M68 -416l309 1960h348l-16 -104h-250l-277 -1751h250l-16 -105h-348z" />
<glyph unicode="\" horiz-adv-x="1310" d="M334 1653l78 37l833 -1651l-82 -39z" />
<glyph unicode="]" horiz-adv-x="614" d="M68 -416l16 105h250l276 1751h-250l17 104h348l-309 -1960h-348z" />
<glyph unicode="^" d="M209 616l616 928h107l325 -928h-94l-299 836l-559 -836h-96z" />
<glyph unicode="_" horiz-adv-x="1024" d="M-61 -385l24 154h1024l-24 -154h-1024z" />
<glyph unicode="`" horiz-adv-x="641" d="M379 1423l131 39l160 -301l-84 -35z" />
<glyph unicode="a" horiz-adv-x="1146" d="M133 383q0 23 3 46.5t5 47.5q33 207 180.5 347.5t360.5 140.5q109 0 200 -47.5t136 -137.5l4 2l25 164h92l-150 -946h-92l27 170h-4q-49 -70 -126 -116t-161 -62q-27 -6 -53.5 -9t-51.5 -3q-190 0 -292.5 114.5t-102.5 288.5zM227 399q0 -137 82 -236.5t232 -99.5 q182 0 297.5 127t142.5 297q4 18 5 37t1 35q0 139 -86 229.5t-237 90.5v2q-162 -2 -284 -126t-147 -278q-2 -20 -4 -39.5t-2 -38.5z" />
<glyph unicode="b" horiz-adv-x="1146" d="M158 0l268 1690h92l-143 -908h4q68 80 164 127t196 54q8 2 16.5 2h16.5q188 0 290.5 -112t102.5 -284q0 -20 -2 -43.5t-6 -48.5q-33 -207 -182.5 -352t-364.5 -145q-104 0 -197.5 49t-131.5 139l-5 2l-26 -170h-92zM313 395q0 -137 80 -234.5t234 -97.5v3h5 q170 0 288 124q118 126 145 287q4 16 5 33.5t1 34.5q-2 135 -84 234.5t-227 99.5q-180 0 -297 -117t-144 -287q-2 -20 -4 -39.5t-2 -40.5z" />
<glyph unicode="c" horiz-adv-x="976" d="M133 387q0 20 3 42t5 44q33 207 195 349.5t371 142.5q92 0 170.5 -29t140.5 -88v2l-21 -123q-55 72 -130.5 112t-178.5 40q-168 0 -299 -122t-156 -284q-2 -16 -4 -33.5t-2 -33.5q0 -139 90.5 -241t239.5 -102h11h12q96 6 188 51.5t164 118.5l-19 -122 q-74 -59 -157.5 -91t-169.5 -38q-10 -2 -19.5 -2h-19.5q-186 0 -300 115.5t-114 291.5z" />
<glyph unicode="d" horiz-adv-x="1146" d="M133 383q0 23 3 46.5t5 47.5q33 207 180.5 347.5t360.5 140.5q109 0 200 -47.5t136 -137.5l4 2l143 908h92l-268 -1690h-92l27 170h-4q-49 -70 -126 -116t-161 -62q-27 -6 -53.5 -9t-51.5 -3q-190 0 -292.5 114.5t-102.5 288.5zM227 399q0 -137 82 -236.5t232 -99.5v3h6 q177 0 291 124q116 126 143 297q4 18 5 37t1 35q0 139 -86 229.5t-237 90.5q-162 0 -284 -124t-147 -278q-2 -20 -4 -39.5t-2 -38.5z" />
<glyph unicode="e" horiz-adv-x="1044" d="M133 381q0 23 3 46.5t5 45.5q31 199 180.5 345.5t356.5 146.5q188 0 285.5 -116t97.5 -286q0 -25 -2 -49.5t-6 -50.5v2h-822q-4 -25 -6 -46.5t-2 -43.5q0 -143 90 -227.5t234 -84.5q111 0 207 60.5t161 155.5l70 -43q-82 -125 -204 -190.5t-261 -65.5 q-186 0 -286.5 116.5t-100.5 284.5zM246 549v2h729v2v2v2v2q0 127 -83 223.5t-226 96.5t-265 -98.5t-155 -231.5z" />
<glyph unicode="f" horiz-adv-x="491" d="M158 0l137 860h-105l13 86h104l68 424q4 20 8 47t12 56q8 35 21.5 67.5t32.5 58.5q39 53 96 82t119 33h6h8q14 0 27.5 -1t25.5 -5q6 -2 13.5 -4t13.5 -4l-15 -82q-6 0 -12 1t-12 1q-12 4 -23.5 6t-25.5 2q-96 0 -136 -63.5t-55 -139.5q-4 -18 -8 -37.5t-6 -37.5l-66 -404 h238l-12 -86h-238l-137 -860h-92z" />
<glyph unicode="g" horiz-adv-x="1161" d="M43 -157.5q0 12.5 2 24.5h92q-2 -10 -2 -19.5v-17.5q0 -131 92 -207t226 -76h9h11q84 4 164 37t141 105q68 82 97.5 172t44.5 184l18 119h-4q-63 -72 -149.5 -118t-178.5 -60q-18 -4 -35.5 -5t-35.5 -1q-182 0 -285 118.5t-103 286.5q0 23 3.5 44.5t5.5 43.5 q33 205 187.5 348.5t361.5 143.5q115 0 195.5 -47.5t131.5 -137.5l4 2l25 164h92l-143 -901q-16 -109 -45 -208t-113 -193q-80 -90 -186.5 -136.5t-219.5 -46.5q-174 0 -290 93q-113 90 -113 258v6v24.5zM242 399q0 -137 82 -236.5t231 -99.5q182 0 298 127t142 297 q4 18 5 37t1 35q0 139 -86 229.5t-237 90.5v2q-162 -2 -284 -126t-146 -278q-2 -20 -4 -39.5t-2 -38.5z" />
<glyph unicode="h" horiz-adv-x="1003" d="M158 0l268 1690h92l-141 -891h4q53 76 134 121t173 45q145 0 202.5 -69t57.5 -189q0 -31 -3 -66t-9 -72l-90 -569h-92l90 571q6 33 9 66t3 63q0 78 -39 128.5t-151 50.5q-158 0 -229.5 -108.5t-100.5 -238.5q-4 -16 -7 -33.5t-5 -33.5l-74 -465h-92z" />
<glyph unicode="i" horiz-adv-x="479" d="M193 0l149 946h92l-149 -946h-92zM354 1245v4t2 4v2v5q4 35 33 59t64 24v3q33 -2 53 -24q18 -20 18 -47v-5v-4v-3v-3q-6 -35 -34.5 -59.5t-63.5 -24.5q-33 0 -52.5 20.5t-19.5 48.5z" />
<glyph unicode="j" horiz-adv-x="479" d="M104 -553l238 1499h92l-237 -1499h-93zM354 1245v4t2 4v2v5q4 35 33 59t64 24v3q33 -2 53 -24q18 -20 18 -47v-5v-4v-3v-3q-6 -35 -34.5 -59.5t-63.5 -24.5q-33 0 -52.5 20.5t-19.5 48.5z" />
<glyph unicode="k" horiz-adv-x="874" d="M158 0l268 1690h92l-182 -1145l452 401h119l-463 -409l447 -537h-121l-393 473l-62 -53l-65 -420h-92z" />
<glyph unicode="l" horiz-adv-x="407" d="M158 0l268 1690h92l-268 -1690h-92z" />
<glyph unicode="m" horiz-adv-x="1484" d="M158 0l149 946h92l-18 -119h4q41 61 107.5 97.5t140.5 40.5h5h7q90 0 152.5 -44t85.5 -128q53 84 134 128t171 44q143 0 194.5 -68t51.5 -176q0 -29 -3.5 -61.5t-9.5 -67.5l-94 -592h-92l96 606q4 27 7 53.5t3 51.5q0 72 -34.5 120t-135.5 48q-141 0 -205.5 -98.5 t-86.5 -215.5q-2 -6 -3.5 -11t-1.5 -11l-86 -543h-92l92 584q4 27 7.5 55.5t3.5 54.5q0 78 -36 131.5t-138 53.5q-119 0 -181.5 -82t-91.5 -181q-6 -25 -11 -49t-9 -49l-82 -518h-92z" />
<glyph unicode="n" horiz-adv-x="1003" d="M158 0l149 946h92l-22 -147h4q53 76 134 121t173 45q145 0 202.5 -69t57.5 -189q0 -31 -3 -66t-9 -72l-90 -569h-92l90 571q6 33 9 66t3 63q0 78 -39 128.5t-151 50.5q-158 0 -229.5 -108.5t-100.5 -238.5q-4 -16 -7 -33.5t-5 -33.5l-74 -465h-92z" />
<glyph unicode="o" horiz-adv-x="1120" d="M133 395q0 18 2 37t4 37q33 205 200 350.5t372 145.5v2q188 -2 307 -119t119 -299q0 -18 -1 -37.5t-6 -40.5q-33 -211 -200.5 -351t-376.5 -140q-186 0 -303 120.5t-117 294.5zM227 406q0 -141 92.5 -242t241.5 -101q174 0 311.5 117t163.5 289q4 18 5 35.5t1 34.5 q-2 150 -98 245t-254 95v2q-168 -2 -300 -125t-159 -287q-2 -8 -3 -16.5t-1 -14.5v-16v-16z" />
<glyph unicode="p" horiz-adv-x="1146" d="M70 -553l237 1499h92l-26 -170h4q49 66 126 112t161 64q27 6 53 9.5t51 3.5q190 0 292.5 -117t102.5 -291q0 -23 -2 -46.5t-6 -47.5q-33 -207 -180.5 -345t-360.5 -138q-109 0 -199.5 46t-133.5 136l-5 2l-114 -717h-92zM309 377q0 -137 86 -225.5t236 -88.5 q166 0 285.5 120t146.5 278q4 20 5 39.5t1 40.5q0 139 -81 238.5t-232 99.5v2q-180 -2 -296 -131t-145 -299q-2 -18 -4 -37t-2 -37z" />
<glyph unicode="q" horiz-adv-x="1146" d="M131 369q0 23 3 46t5 46q33 209 181.5 356.5t365.5 147.5q104 0 197.5 -50.5t132.5 -140.5l4 2l27 170h92l-238 -1499h-92l115 717h-4q-66 -84 -159 -129t-192 -53q-10 -2 -21 -2h-24q-188 0 -290.5 109.5t-102.5 279.5zM223 377q0 -137 86 -225.5t236 -88.5 q166 0 285.5 120t146.5 278q4 20 5 39.5t1 40.5q0 139 -81 238.5t-232 99.5v2q-180 -2 -296 -131t-145 -299q-2 -18 -4 -37t-2 -37z" />
<glyph unicode="r" horiz-adv-x="569" d="M158 0l149 946h92l-18 -123h4q37 63 94.5 102.5t132.5 39.5q23 0 41.5 -4.5t36.5 -10.5q4 -2 9.5 -4t9.5 -4l-62 -80q-4 0 -8 2t-6 4q-12 4 -23.5 7.5t-25.5 3.5q-106 0 -156.5 -76t-73.5 -166q-10 -43 -16 -83t-12 -73l-76 -481h-92z" />
<glyph unicode="s" horiz-adv-x="768" d="M94 227l94 31q12 -86 61.5 -140.5t143.5 -54.5q90 0 162 62.5t86 150.5q2 8 2 15.5v15.5q0 70 -49 101.5t-109 54.5q-10 4 -19 7t-20 7q-74 31 -136 78t-62 135v17.5t2 17.5q16 109 105 174.5t192 65.5q72 0 134 -43t83 -109v2l-86 -41q-14 47 -54 76t-96 29q-8 0 -16 -1 t-16 -4q-53 -10 -98.5 -50t-53.5 -93q-2 -6 -2 -12v-12q0 -59 47 -89t109 -55l20 -8t21 -8q74 -29 135 -76t61 -147q0 -12 -1 -24.5t-3 -27.5q-20 -131 -122.5 -211.5t-229.5 -80.5q-119 0 -197 66.5t-88 180.5z" />
<glyph unicode="t" horiz-adv-x="428" d="M168 0l137 860h-104l12 86h104l54 338h92l-53 -338h165l-12 -86h-166l-137 -860h-92z" />
<glyph unicode="u" horiz-adv-x="966" d="M186 229q0 37 5.5 74t11.5 74l90 569h92l-84 -534q-6 -41 -10 -77t-4 -69q0 -88 42 -145.5t165 -57.5q170 0 226 104.5t77 242.5l84 536h92l-90 -567q-10 -74 -28.5 -144.5t-72.5 -130.5q-45 -49 -105.5 -77.5t-121.5 -40.5q-20 -2 -38.5 -4t-37.5 -2q-80 0 -150.5 30.5 t-111.5 93.5q-16 29 -23.5 61t-7.5 64z" />
<glyph unicode="v" horiz-adv-x="886" d="M160 946h94l219 -780l459 780h94l-590 -997z" />
<glyph unicode="w" horiz-adv-x="1540" d="M160 946h94l211 -776l465 827l205 -827l450 776h94l-585 -997l-205 817l-461 -817z" />
<glyph unicode="x" horiz-adv-x="907" d="M8 0l465 500l-283 446h111l242 -383l362 383h111l-422 -446l305 -500h-108l-269 434l-405 -434h-109z" />
<glyph unicode="y" horiz-adv-x="942" d="M125 -553l313 537l-303 962h96l269 -856l497 856h95l-873 -1499h-94z" />
<glyph unicode="z" horiz-adv-x="983" d="M6 0l912 860h-650l13 86h841l-907 -860h768l-14 -86h-963z" />
<glyph unicode="{" horiz-adv-x="614" d="M166 520v2l14 90q14 6 26.5 14.5t24.5 16.5q55 39 90 84t48 119l55 362q29 174 102.5 252t247.5 82l-14 -92q-12 -2 -26.5 -3t-26.5 -1q-57 -8 -107.5 -41t-64.5 -121l-60 -379q-25 -154 -71 -218t-123 -112q-2 -2 -4.5 -3t-4.5 -3l-2 -8q51 -39 80 -85t27 -136 q0 -27 -2 -57.5t-8 -67.5l-62 -377q-2 -10 -3 -19t1 -18q0 -74 46 -98.5t102 -28.5h15h13l-14 -90q-141 4 -198.5 54.5t-55.5 158.5q0 27 2 56.5t8 64.5l58 361q2 12 3 24t1 23q0 55 -22.5 94t-63.5 76q-8 6 -15.5 12t-15.5 12z" />
<glyph unicode="|" horiz-adv-x="655" d="M279 0l268 1690h98l-268 -1690h-98z" />
<glyph unicode="}" horiz-adv-x="614" d="M18 -416l15 90q12 0 25.5 1t27.5 1q57 8 106.5 41t63.5 121l61 379q25 158 73 226.5t130 115.5l2 12q-2 0 -5 2t-7 5q-45 37 -70.5 79.5t-23.5 124.5q0 25 2 55.5t8 65.5l59 383q2 8 3 19.5t1 19.5q0 72 -46 95.5t-101 27.5h-15.5h-13.5l15 96q141 -4 198.5 -55 t57.5 -160q0 -27 -3 -57.5t-10 -65.5l-55 -358q-2 -16 -3 -29.5t-1 -23.5q0 -49 19.5 -84t54.5 -68q10 -8 20 -16.5t21 -16.5v2l-15 -90q-10 -10 -21 -16t-22 -14q-59 -43 -95 -91.5t-48 -124.5l-57 -358q-27 -176 -100.5 -252t-250.5 -82z" />
<glyph unicode="~" d="M178 432q14 12 29.5 27.5t30.5 32.5q55 55 123.5 102t152.5 47v2q29 -2 56.5 -8t58.5 -17q29 -10 57.5 -23t54.5 -28q8 -4 17.5 -8t17.5 -8q47 -25 89 -45.5t75 -20.5q70 0 123 48.5t100 115.5l92 -45q-2 -4 -3 -5t-1 -3q-66 -82 -148.5 -149.5t-182.5 -67.5 q-55 0 -107.5 24.5t-103.5 53.5t-104.5 53.5t-108.5 24.5q-70 0 -123.5 -45.5t-104.5 -106.5z" />
<glyph unicode="&#xa1;" horiz-adv-x="655" d="M184 -594l199 1251h98l-198 -1251h-99zM383 870v5.5v5.5q6 35 34.5 59.5t63.5 24.5v2q33 -2 52.5 -22.5t19.5 -49.5v-4v-2q-2 -2 -2 -4v-4q-4 -35 -33 -59.5t-63 -24.5q-33 0 -53.5 20.5t-18.5 52.5z" />
<glyph unicode="&#xa2;" d="M336 698v19.5t2 19.5q0 8 1 18.5t3 18.5q31 193 170 338t338 166l39 242h92l-39 -238q82 -4 153.5 -36t125.5 -85v2l-21 -123q-47 63 -116.5 105.5t-155.5 48.5l-129 -815q92 6 180 52t151 116l5 2l-19 -125q-66 -51 -141.5 -86t-153.5 -43q-8 -2 -17 -3t-18 -1l-43 -260 h-92l43 264q-162 14 -260 130t-98 273zM432 719q0 -125 75 -223.5t200 -116.5v2l129 811q-150 -23 -263.5 -141.5t-136.5 -266.5q-2 -8 -3 -16t-1 -16v-16.5v-16.5z" />
<glyph unicode="&#xa3;" d="M141 59q41 39 94.5 71t110.5 48q23 6 44.5 9t41.5 3h2h2q59 45 108.5 107.5t61.5 136.5l2 62h-254l15 92h229l-121 282q-12 25 -23.5 49.5t-19.5 49.5q-12 33 -18 66.5t-6 70.5q0 16 2 33.5t4 36.5q25 166 162 273t296 114h7.5h7.5q152 0 244 -95.5t92 -234.5v-19.5 t-2 -19.5q0 -10 -2 -19.5t-4 -19.5l-99 2q4 14 5 30.5t1 31.5q-2 111 -71.5 181t-190.5 70q-125 0 -227.5 -92t-122.5 -213q-2 -10 -3 -21t-1 -22q2 -51 20.5 -100t40.5 -96q6 -12 11.5 -23.5t9.5 -23.5q4 -6 7 -13.5t5 -13.5q31 -63 58.5 -130t44.5 -136l278 2l-14 -92 h-260l-7 -68q0 -6 -1 -11t-3 -9q-14 -66 -56 -129.5t-97 -110.5l20 -4q20 -8 48 -19.5t59 -23.5q8 -4 18 -8t19 -7q41 -16 77.5 -26t63.5 -10q70 0 131 49t104 108q2 2 4.5 5.5t4.5 5.5l75 -48q-2 -4 -3 -5t-1 -3q-55 -76 -140 -139t-179 -63q-35 0 -73 9t-75 21 q-18 6 -36.5 13.5t-36.5 15.5q-53 23 -104.5 41t-94.5 18q-68 0 -128 -36.5t-116 -81.5z" />
<glyph unicode="&#xa4;" d="M172 209l94 82q-20 43 -34.5 82t-20.5 78q-4 18 -6 37.5t-2 39.5t2 42t6 42q6 43 19.5 83t31.5 79q20 39 47 79t62 83l-70 84l86 74l72 -86q39 23 75.5 43t71.5 34q49 18 99.5 28.5t107.5 10.5q80 0 141.5 -19.5t120.5 -57.5q12 -8 26.5 -18.5t28.5 -22.5l101 88l61 -74 l-94 -82q23 -49 37 -90t20 -82q4 -18 5.5 -35.5t1.5 -36.5q0 -20 -1 -39.5t-6 -42.5q-8 -43 -20 -83t-33 -78q-18 -39 -45 -79t-63 -83l69 -80l-86 -74l-71 86q-39 -27 -76 -47t-72 -35q-49 -18 -99 -28.5t-108 -10.5q-80 0 -141 19.5t-121 58.5q-12 8 -26.5 18.5 t-28.5 22.5l-101 -84zM305 555q0 -147 102.5 -251.5t260.5 -104.5q174 0 316 123.5t173 289.5q2 10 3 18.5t1 18.5q2 8 2 17.5v17.5q0 150 -103.5 245t-260.5 97v2q-180 -4 -322.5 -122t-167.5 -294q0 -6 -1 -13t-1 -15q-2 -8 -2 -15.5v-13.5z" />
<glyph unicode="&#xa5;" d="M258 567l14 92h418l-63 154h-330l14 92h275l-271 639h119l324 -772l565 772h119l-471 -639h274l-14 -92h-328l-115 -154h418l-14 -92h-418l-90 -567h-98l90 567h-418z" />
<glyph unicode="&#xa6;" horiz-adv-x="634" />
<glyph unicode="&#xa7;" d="M279 -152q0 25 3 52.5t7 56.5l2 20h98l-4 -26q-2 -20 -4 -37.5t-2 -34.5q0 -90 48 -136t159 -46q115 0 198.5 62.5t102.5 177.5q2 10 3 21t1 22q-2 92 -70.5 138t-150.5 75q-10 4 -19.5 7t-19.5 7q-119 43 -202 107.5t-83 195.5q0 16 2 33.5t4 36.5q18 121 93 214 t194 138q-76 41 -115 97t-39 140q0 16 2 34t5 36q25 158 142.5 241t266.5 83q170 0 228.5 -76t58.5 -211q0 -20 -1 -41t-3 -43l-99 2q4 20 5.5 39.5t1.5 38.5q0 94 -50.5 146t-164.5 52q-109 0 -190 -65.5t-99 -177.5q-2 -12 -3 -24.5t-1 -22.5q0 -98 68.5 -140.5 t156.5 -72.5q8 -2 16.5 -5.5t16.5 -5.5q4 -2 7 -2t5 -2q96 -33 175 -91t77 -199q0 -18 -1 -39t-5 -43q-18 -119 -96 -205t-189 -137q86 -35 130 -99.5t44 -152.5q0 -16 -1 -31.5t-5 -32.5q-27 -164 -145.5 -240.5t-270.5 -76.5q-154 0 -221 61.5t-67 181.5zM449 547 q0 -98 68.5 -165t168.5 -67v2q111 -2 205 77t110 192q2 10 3.5 21t1.5 22q0 96 -67 163.5t-167 67.5q-113 0 -208 -82t-113 -192q-2 -10 -2 -19.5v-19.5z" />
<glyph unicode="&#xa8;" horiz-adv-x="862" d="M362 1286v3v3v2v2q6 35 35 58.5t62 23.5v2q31 -2 50 -22.5t19 -48.5v-3v-3q-2 -2 -2 -3.5v-3.5q-4 -33 -31.5 -57.5t-62.5 -24.5q-31 0 -51.5 20.5t-18.5 51.5zM745 1286v3v3v2v2q6 35 35 58.5t62 23.5v2q31 -2 50 -22.5t19 -48.5v-3v-3q-2 -2 -2 -3.5v-3.5 q-4 -33 -31.5 -57.5t-62.5 -24.5q-31 0 -51.5 20.5t-18.5 51.5z" />
<glyph unicode="&#xa9;" horiz-adv-x="1638" d="M139 647q0 31 3 61.5t8 63.5q53 328 322 559.5t597 231.5q295 0 485.5 -191.5t190.5 -474.5q0 -31 -3 -61.5t-7 -63.5q-51 -328 -320.5 -560t-597.5 -232q-297 0 -487.5 191t-190.5 476zM240 659q0 -250 166.5 -416.5t427.5 -166.5v2q289 -2 523 200.5t279 493.5 q4 29 6.5 57.5t2.5 55.5q0 248 -166 413.5t-426 165.5q-291 0 -524.5 -201.5t-280.5 -490.5q-4 -29 -6 -56.5t-2 -56.5zM535 694q0 20 2 42t4 42q33 197 169 326t337 129q143 0 234 -78t89 -221l-98 2q-2 92 -73 145.5t-167 53.5q-156 0 -262 -103.5t-129 -251.5 q-2 -16 -4 -31.5t-2 -31.5q2 -123 76.5 -210t212.5 -87q10 0 20 1t21 1q86 12 159.5 65.5t100.5 141.5v2h98q-37 -143 -154.5 -225t-253.5 -84h-4h-4q-176 0 -275.5 105t-96.5 267z" />
<glyph unicode="&#xaa;" horiz-adv-x="688" d="M166 768l12 70h600l-12 -70h-600zM242 1221q0 12 1 24t3 25q20 125 114.5 209t233.5 84q72 0 130 -29t87 -82l4 2l16 98h60l-90 -567h-60l17 102h-4q-33 -45 -83 -72.5t-104 -37.5q-16 -2 -32.5 -4t-32.5 -2q-125 0 -192.5 71.5t-67.5 178.5zM313 1229q0 -76 49.5 -132.5 t141.5 -56.5q113 0 186.5 70t87.5 164q2 10 2 17v16q0 80 -56 133t-153 53v2q-96 -2 -168.5 -71.5t-87.5 -155.5q0 -4 -1 -9.5t-1 -9.5v-11v-9z" />
<glyph unicode="&#xab;" horiz-adv-x="813" d="M176 655l352 346l52 -55l-293 -291l200 -290l-67 -56zM422 655l352 346l51 -55l-293 -291l201 -290l-67 -56z" />
<glyph unicode="&#xac;" horiz-adv-x="634" />
<glyph unicode="&#xad;" horiz-adv-x="1024" />
<glyph unicode="&#xae;" horiz-adv-x="1638" d="M139 647q0 31 3 61.5t8 63.5q53 328 322 559.5t597 231.5q295 0 485.5 -191.5t190.5 -474.5q0 -31 -3 -61.5t-7 -63.5q-51 -328 -320.5 -560t-597.5 -232q-297 0 -487.5 191t-190.5 476zM240 659q0 -250 166.5 -416.5t427.5 -166.5v2q289 -2 523 200.5t279 493.5 q4 29 6.5 57.5t2.5 55.5q0 248 -166 413.5t-426 165.5q-291 0 -524.5 -201.5t-280.5 -490.5q-4 -29 -6 -56.5t-2 -56.5zM584 324l137 866h379q152 -2 213 -49t61 -133q0 -6 -1 -15.5t-1 -17.5q0 -4 -1 -8t-1 -9q-20 -127 -107 -180t-202 -57v2l199 -399h-127l-185 399h-203 l-63 -399h-98zM762 821h170q10 -2 19.5 -2h19.5h40.5h41.5q76 2 141.5 28.5t77.5 113.5q2 6 2 12v10q-2 59 -56.5 80.5t-119.5 26.5h-19.5h-19.5l-256 2z" />
<glyph unicode="&#xaf;" horiz-adv-x="634" />
<glyph unicode="&#xb0;" horiz-adv-x="634" />
<glyph unicode="&#xb1;" d="M111 0l16 98h1049l-17 -98h-1048zM199 557l16 98h475l62 394h98l-62 -394h476l-17 -98h-475l-61 -393h-99l62 393h-475z" />
<glyph unicode="&#xb2;" horiz-adv-x="634" />
<glyph unicode="&#xb3;" horiz-adv-x="634" />
<glyph unicode="&#xb4;" horiz-adv-x="641" d="M338 1161l254 301l119 -39l-301 -297z" />
<glyph unicode="&#xb5;" horiz-adv-x="966" d="M55 -553l238 1499h92l-74 -467q-4 -27 -7 -54.5t-3 -55.5q-2 -8 -2 -17.5v-19.5q0 -102 40 -185.5t155 -83.5q170 0 226 104.5t77 242.5l84 536h92l-90 -567q-10 -74 -28.5 -144.5t-72.5 -130.5q-45 -49 -105.5 -77.5t-121.5 -40.5q-20 -2 -38.5 -4t-37.5 -2 q-14 0 -29.5 2t-31.5 8q-51 12 -97.5 52t-58.5 103l-4 2l-111 -700h-92z" />
<glyph unicode="&#xb6;" d="M401 1073q0 16 2.5 34.5t4.5 37.5q29 190 145.5 293.5t331.5 103.5l403 2l-14 -92h-82l-287 -1817h-98l287 1817h-189l-287 -1817h-98l178 1123q-139 -4 -218 89t-79 226z" />
<glyph unicode="&#xb7;" horiz-adv-x="634" />
<glyph unicode="&#xb8;" horiz-adv-x="612" d="M100 -336l238 295l106 -45l-272 -289z" />
<glyph unicode="&#xb9;" horiz-adv-x="634" />
<glyph unicode="&#xba;" horiz-adv-x="671" d="M135 768l12 70h644l-13 -70h-643zM211 1225v11t2 9q0 4 1 9.5t1 11.5q20 123 127 210t240 87v2q123 -2 201.5 -73t78.5 -179v-11.5t-2 -11.5q0 -6 -1 -11t-1 -11q-20 -127 -127.5 -212t-243.5 -85q-121 0 -198.5 73.5t-77.5 180.5zM293 1231q0 -76 56.5 -133.5 t146.5 -57.5q102 0 185 64.5t97 159.5q2 10 2 18v16q0 84 -58 139.5t-155 55.5v2q-100 -2 -179 -71.5t-93 -159.5q0 -4 -1 -8.5t-1 -8.5v-8v-8z" />
<glyph unicode="&#xbb;" horiz-adv-x="813" d="M195 365l294 290l-202 291l67 55l246 -346l-354 -346zM440 365l295 290l-203 291l68 55l246 -346l-354 -346z" />
<glyph unicode="&#xbc;" horiz-adv-x="634" />
<glyph unicode="&#xbd;" horiz-adv-x="1904" d="M324 2l1165 1579l59 -37l-1165 -1579zM438 1475l41 69h195l-146 -917h-69l135 848h-156zM1077 0l432 379q16 12 34 27.5t36 31.5q55 51 101 110.5t57 121.5q2 8 2 15v15q0 78 -57.5 122t-145.5 44q-102 0 -175 -54t-89 -148l-70 2q10 47 29.5 90t62.5 82q35 33 80 55 t92 33q20 6 41 8t41 2q115 0 188.5 -65.5t73.5 -165.5v-9.5t-2 -9.5q0 -6 -1 -11t-1 -9q-12 -78 -66 -147.5t-116 -125.5q-12 -12 -24.5 -22.5t-24.5 -20.5l-324 -280h455l-10 -70h-619z" />
<glyph unicode="&#xbe;" horiz-adv-x="634" />
<glyph unicode="&#xbf;" horiz-adv-x="1005" d="M90 -319q0 16 2 33.5t4 35.5q29 174 133.5 250t264.5 115q102 25 185 65.5t103 161.5q2 10 2 19.5v17.5q0 80 -53 131t-143 51q-104 0 -173 -72.5t-83 -164.5v2h-99q16 137 121 232t252 95q121 0 200 -71.5t79 -184.5q0 -12 -1 -24.5t-3 -24.5q-20 -141 -115.5 -210.5 t-226.5 -102.5q-8 -2 -15.5 -4t-15.5 -4q-121 -29 -206 -79t-107 -194q0 -6 -1 -12t-1 -14q-2 -6 -2.5 -12.5t-0.5 -12.5q0 -96 62.5 -162.5t169.5 -66.5q115 0 204 74.5t103 185.5q4 23 6 45t2 45v9v9h94q0 -33 -1 -65.5t-5 -65.5q-25 -145 -147.5 -236t-263.5 -93h-4h-4 q-147 0 -231.5 82.5t-84.5 216.5zM563 870v5.5v5.5q6 35 35 59.5t64 24.5v2q33 -2 52 -22.5t19 -49.5v-4v-2q-2 -2 -2 -4v-4q-4 -35 -32.5 -59.5t-63.5 -24.5q-33 0 -53.5 20.5t-18.5 52.5z" />
<glyph unicode="&#xc0;" horiz-adv-x="1312" d="M10 0l899 1595l394 -1595h-101l-127 508h-678l-286 -508h-101zM449 600h604l-183 746zM809 2021l131 39l160 -301l-84 -35z" />
<glyph unicode="&#xc1;" horiz-adv-x="1312" d="M10 0l899 1595l394 -1595h-101l-127 508h-678l-286 -508h-101zM449 600h604l-183 746zM768 1759l254 301l119 -39l-301 -297z" />
<glyph unicode="&#xc2;" horiz-adv-x="1312" d="M10 0l899 1595l394 -1595h-101l-127 508h-678l-286 -508h-101zM449 600h604l-183 746zM659 1802l318 217l248 -217l-86 -59l-181 158l-233 -158z" />
<glyph unicode="&#xc3;" horiz-adv-x="1312" d="M10 0l899 1595l394 -1595h-101l-127 508h-678l-286 -508h-101zM449 600h604l-183 746zM653 1843q29 47 76 88t105 41q33 0 64.5 -10t59.5 -25q4 0 7.5 -1t5.5 -3q4 -2 9 -4t11 -4q27 -12 52.5 -22.5t50.5 -10.5q37 0 66.5 26t43.5 58l53 -43q-20 -51 -66 -88t-97 -45 q-6 -2 -12.5 -2h-12.5q-27 0 -59.5 13.5t-67.5 27.5q-12 6 -25.5 12.5t-27.5 10.5q-20 8 -40 13t-38 5q-39 0 -63.5 -25.5t-40.5 -58.5v2z" />
<glyph unicode="&#xc4;" horiz-adv-x="1312" d="M10 0l899 1595l394 -1595h-101l-127 508h-678l-286 -508h-101zM449 600h604l-183 746zM682 1882v3t2 3v3v3q4 35 32.5 58.5t61.5 23.5v2q31 -2 51.5 -22.5t18.5 -50.5v-4v-3.5v-3.5q-6 -33 -34 -57.5t-62 -24.5q-31 0 -50.5 20.5t-19.5 49.5zM1065 1882v3t2 3v3v3 q4 35 32.5 58.5t61.5 23.5v2q31 -2 51.5 -22.5t18.5 -50.5v-4v-3.5v-3.5q-6 -33 -34 -57.5t-62 -24.5q-31 0 -50.5 20.5t-19.5 49.5z" />
<glyph unicode="&#xc5;" horiz-adv-x="1312" d="M10 0l899 1595l394 -1595h-101l-127 508h-678l-286 -508h-101zM449 600h604l-183 746zM776 1851v7.5v7.5t1 7t1 7q10 74 70.5 126t134.5 52v2q68 -2 111 -45t43 -108v-6.5v-6.5q0 -4 -1 -7t-1 -7q-12 -74 -73 -126t-134 -52q-66 0 -109 43t-43 106zM858 1862 q0 -33 23.5 -55.5t58.5 -22.5q41 0 72.5 28.5t40.5 67.5v4t2 4v4v4q-2 35 -25.5 57.5t-58.5 22.5v2q-39 -2 -72 -29.5t-39 -68.5q-2 -4 -2 -9v-9z" />
<glyph unicode="&#xc6;" horiz-adv-x="1929" d="M10 0l867 1544h673l21 -92h-637l141 -561h621l24 -92h-620l174 -707h639l22 -92h-747l-125 508h-662l-280 -508h-111zM455 600h583l-178 727z" />
<glyph unicode="&#xc7;" horiz-adv-x="1513" d="M186 651q0 29 3.5 58.5t7.5 58.5q51 330 327.5 562.5t603.5 232.5q139 0 265.5 -52.5t214.5 -148.5v2l-21 -135q-72 104 -199.5 170.5t-267.5 70.5h-7h-5q-289 0 -529.5 -213t-285.5 -497q-4 -25 -6 -49.5t-2 -48.5q0 -106 36.5 -204t102.5 -175q84 -92 205 -152.5 t258 -60.5q49 0 105.5 10t111.5 26q94 31 184 82.5t154 116.5l-23 -133q-123 -92 -262 -142t-283 -50q-293 0 -490.5 193.5t-197.5 477.5zM551 -336l237 295l107 -45l-272 -289z" />
<glyph unicode="&#xc8;" horiz-adv-x="1038" d="M166 0l244 1544h737l-14 -92h-639l-88 -561h622l-14 -92h-623l-112 -707h639l-15 -92h-737zM672 2021l131 39l160 -301l-84 -35z" />
<glyph unicode="&#xc9;" horiz-adv-x="1038" d="M166 0l244 1544h737l-14 -92h-639l-88 -561h622l-14 -92h-623l-112 -707h639l-15 -92h-737zM631 1759l254 301l119 -39l-302 -297z" />
<glyph unicode="&#xca;" horiz-adv-x="1038" d="M166 0l244 1544h737l-14 -92h-639l-88 -561h622l-14 -92h-623l-112 -707h639l-15 -92h-737zM522 1802l318 217l247 -217l-86 -59l-180 158l-233 -158z" />
<glyph unicode="&#xcb;" horiz-adv-x="1038" d="M166 0l244 1544h737l-14 -92h-639l-88 -561h622l-14 -92h-623l-112 -707h639l-15 -92h-737zM545 1882v3t2 3v3v3q4 35 32.5 58.5t61.5 23.5v2q31 -2 51.5 -22.5t18.5 -50.5v-4v-3.5v-3.5q-6 -33 -34 -57.5t-63 -24.5q-31 0 -50 20.5t-19 49.5zM928 1882v3t2 3v3v3 q4 35 32.5 58.5t61.5 23.5v2q31 -2 51.5 -22.5t18.5 -50.5v-4v-3.5v-3.5q-6 -33 -34 -57.5t-63 -24.5q-31 0 -50 20.5t-19 49.5z" />
<glyph unicode="&#xcc;" horiz-adv-x="430" d="M166 0l244 1544h98l-244 -1544h-98zM369 2021l131 39l159 -301l-84 -35z" />
<glyph unicode="&#xcd;" horiz-adv-x="430" d="M166 0l244 1544h98l-244 -1544h-98zM328 1759l254 301l118 -39l-301 -297z" />
<glyph unicode="&#xce;" horiz-adv-x="430" d="M166 0l244 1544h98l-244 -1544h-98zM217 1802l318 217l247 -217l-86 -59l-180 158l-233 -158z" />
<glyph unicode="&#xcf;" horiz-adv-x="430" d="M166 0l244 1544h98l-244 -1544h-98zM242 1882v3t2 3v3v3q4 35 32.5 58.5t61.5 23.5v2q31 -2 51.5 -22.5t18.5 -50.5v-4v-3.5v-3.5q-6 -33 -34 -57.5t-63 -24.5q-31 0 -50 20.5t-19 49.5zM625 1882v3t2 3v3v3q4 35 32.5 58.5t61.5 23.5v2q31 -2 51.5 -22.5t18.5 -50.5v-4 v-3.5v-3.5q-6 -33 -34 -57.5t-63 -24.5q-31 0 -50 20.5t-19 49.5z" />
<glyph unicode="&#xd0;" horiz-adv-x="1335" d="M127 797l14 92h166l103 655h278q170 -2 303 -40t240 -156q84 -90 125 -206t41 -243q0 -33 -3 -64.5t-8 -66.5q-27 -160 -110.5 -306.5t-216.5 -258.5q-25 -20 -49.5 -39t-48.5 -33q-121 -78 -247 -104.5t-270 -26.5h-278l127 797h-166zM279 92h178q152 -2 286 37t263 147 q115 98 187.5 226.5t94.5 265.5q4 29 6 57.5t2 55.5q0 115 -37.5 218t-113.5 183q-94 100 -211 134t-262 34l-178 2l-88 -563h354l-15 -92h-354z" />
<glyph unicode="&#xd1;" horiz-adv-x="1726" d="M166 0l248 1565l1079 -1368l213 1347h98l-252 -1595l-1077 1378l-211 -1327h-98zM860 1843q29 47 76 88t104 41q33 0 65 -10t60 -25q4 0 7.5 -1t5.5 -3q4 -2 9 -4t11 -4q27 -12 52.5 -22.5t49.5 -10.5q37 0 67 26t44 58l53 -43q-20 -51 -66 -88t-98 -45q-6 -2 -12 -2h-12 q-27 0 -59.5 13.5t-67.5 27.5q-12 6 -25.5 12.5t-27.5 10.5q-20 8 -40 13t-38 5q-39 0 -63.5 -25.5t-41.5 -58.5v2z" />
<glyph unicode="&#xd2;" horiz-adv-x="634" />
<glyph unicode="&#xd3;" horiz-adv-x="1748" d="M186 649q0 16 1 30.5t1 31.5q2 14 4.5 29.5t4.5 29.5q51 326 324.5 559.5t600.5 233.5v2q297 -2 491.5 -196.5t194.5 -481.5q0 -18 -1 -38t-3 -40q-2 -10 -3 -19.5t-3 -19.5q-51 -326 -326.5 -558t-601.5 -232q-295 0 -489.5 193.5t-194.5 475.5zM287 659 q0 -248 170 -418.5t430 -170.5q287 0 527.5 207.5t285.5 492.5q4 29 6 54.5t2 52.5q0 250 -170 421.5t-430 171.5v3q-289 -2 -528.5 -209t-284.5 -494q-4 -27 -6 -54.5t-2 -56.5zM987 1759l254 301l119 -39l-301 -297z" />
<glyph unicode="&#xd4;" horiz-adv-x="1748" d="M186 649q0 16 1 30.5t1 31.5q2 14 4.5 29.5t4.5 29.5q51 326 324.5 559.5t600.5 233.5v2q297 -2 491.5 -196.5t194.5 -481.5q0 -18 -1 -38t-3 -40q-2 -10 -3 -19.5t-3 -19.5q-51 -326 -326.5 -558t-601.5 -232q-295 0 -489.5 193.5t-194.5 475.5zM287 659 q0 -248 170 -418.5t430 -170.5q287 0 527.5 207.5t285.5 492.5q4 29 6 54.5t2 52.5q0 250 -170 421.5t-430 171.5v3q-289 -2 -528.5 -209t-284.5 -494q-4 -27 -6 -54.5t-2 -56.5zM877 1802l317 217l248 -217l-86 -59l-180 158l-234 -158z" />
<glyph unicode="&#xd5;" horiz-adv-x="1748" d="M186 649q0 16 1 30.5t1 31.5q2 14 4.5 29.5t4.5 29.5q51 326 324.5 559.5t600.5 233.5v2q297 -2 491.5 -196.5t194.5 -481.5q0 -18 -1 -38t-3 -40q-2 -10 -3 -19.5t-3 -19.5q-51 -326 -326.5 -558t-601.5 -232q-295 0 -489.5 193.5t-194.5 475.5zM287 659 q0 -248 170 -418.5t430 -170.5q287 0 527.5 207.5t285.5 492.5q4 29 6 54.5t2 52.5q0 250 -170 421.5t-430 171.5v3q-289 -2 -528.5 -209t-284.5 -494q-4 -27 -6 -54.5t-2 -56.5zM872 1843q29 47 76 88t105 41q33 0 64.5 -10t60.5 -25q4 0 7 -1t5 -3q4 -2 9 -4t11 -4 q27 -12 52.5 -22.5t50.5 -10.5q37 0 66.5 26t43.5 58l54 -43q-20 -51 -66.5 -88t-97.5 -45q-6 -2 -12.5 -2h-12.5q-27 0 -59.5 13.5t-67.5 27.5q-12 6 -25.5 12.5t-27.5 10.5q-20 8 -39.5 13t-38.5 5q-39 0 -63.5 -25.5t-40.5 -58.5v2z" />
<glyph unicode="&#xd6;" horiz-adv-x="1748" d="M186 649q0 16 1 30.5t1 31.5q2 14 4.5 29.5t4.5 29.5q51 326 324.5 559.5t600.5 233.5v2q297 -2 491.5 -196.5t194.5 -481.5q0 -18 -1 -38t-3 -40q-2 -10 -3 -19.5t-3 -19.5q-51 -326 -326.5 -558t-601.5 -232q-295 0 -489.5 193.5t-194.5 475.5zM287 659 q0 -248 170 -418.5t430 -170.5q287 0 527.5 207.5t285.5 492.5q4 29 6 54.5t2 52.5q0 250 -170 421.5t-430 171.5v3q-289 -2 -528.5 -209t-284.5 -494q-4 -27 -6 -54.5t-2 -56.5zM901 1882v3t2 3v3v3q4 35 33 58.5t61 23.5v2q31 -2 51.5 -22.5t18.5 -50.5v-4v-3.5v-3.5 q-6 -33 -33.5 -57.5t-62.5 -24.5q-31 0 -50.5 20.5t-19.5 49.5zM1284 1882v3t2 3v3v3q4 35 33 58.5t61 23.5v2q31 -2 51.5 -22.5t18.5 -50.5v-4v-3.5v-3.5q-6 -33 -33.5 -57.5t-62.5 -24.5q-31 0 -50.5 20.5t-19.5 49.5z" />
<glyph unicode="&#xd7;" horiz-adv-x="634" />
<glyph unicode="&#xd8;" horiz-adv-x="1748" d="M104 59l207 191q-59 82 -92 185.5t-33 215.5q0 14 1 29.5t1 30.5q2 14 4.5 29.5t4.5 29.5q51 326 324.5 559.5t600.5 233.5q141 0 268.5 -52.5t221.5 -142.5l215 188l53 -61l-215 -184q70 -88 106.5 -197.5t34.5 -228.5v-28.5t-2 -29.5q0 -14 -2 -28.5t-4 -28.5 q-51 -326 -326.5 -558t-601.5 -232q-150 0 -278.5 54t-224.5 150l-2 4l-215 -188zM287 666q0 -96 28.5 -187.5t79.5 -165.5v2l1135 990q-80 76 -190.5 120.5t-231.5 44.5q-289 0 -528.5 -206.5t-284.5 -493.5q-4 -27 -6 -52.5t-2 -51.5zM446 254q82 -84 198 -134t243 -50 q287 0 527.5 207.5t285.5 492.5q2 12 4 25.5t2 25.5q2 12 2 25.5v25.5q0 102 -33 198.5t-94 172.5v2z" />
<glyph unicode="&#xd9;" horiz-adv-x="1351" d="M221 373q0 49 7.5 100t15.5 107l151 964h99l-148 -934q-2 -20 -5 -37.5t-7 -35.5q-4 -37 -7 -73t-3 -71q0 -47 9 -92t32 -82q35 -57 101 -92t138 -49q20 -4 42 -6t42 -2q33 0 70 5t73 15q63 18 123 50t103 79q61 66 87.5 151t43.5 173q2 16 5 32.5t5 32.5v2l148 934h98 l-152 -962q0 -4 -1 -6.5t-1 -6.5q-18 -115 -48 -216t-122 -195q-70 -68 -158 -111t-180 -57q-29 -6 -56.5 -8t-53.5 -2q-117 0 -221.5 45t-169.5 133q-33 53 -46.5 105t-13.5 110zM829 2021l132 39l159 -301l-84 -35z" />
<glyph unicode="&#xda;" horiz-adv-x="1351" d="M221 373q0 49 7.5 100t15.5 107l151 964h99l-148 -934q-2 -20 -5 -37.5t-7 -35.5q-4 -37 -7 -73t-3 -71q0 -47 9 -92t32 -82q35 -57 101 -92t138 -49q20 -4 42 -6t42 -2q33 0 70 5t73 15q63 18 123 50t103 79q61 66 87.5 151t43.5 173q2 16 5 32.5t5 32.5v2l148 934h98 l-152 -962q0 -4 -1 -6.5t-1 -6.5q-18 -115 -48 -216t-122 -195q-70 -68 -158 -111t-180 -57q-29 -6 -56.5 -8t-53.5 -2q-117 0 -221.5 45t-169.5 133q-33 53 -46.5 105t-13.5 110zM788 1759l254 301l119 -39l-301 -297z" />
<glyph unicode="&#xdb;" horiz-adv-x="1351" d="M221 373q0 49 7.5 100t15.5 107l151 964h99l-148 -934q-2 -20 -5 -37.5t-7 -35.5q-4 -37 -7 -73t-3 -71q0 -47 9 -92t32 -82q35 -57 101 -92t138 -49q20 -4 42 -6t42 -2q33 0 70 5t73 15q63 18 123 50t103 79q61 66 87.5 151t43.5 173q2 16 5 32.5t5 32.5v2l148 934h98 l-152 -962q0 -4 -1 -6.5t-1 -6.5q-18 -115 -48 -216t-122 -195q-70 -68 -158 -111t-180 -57q-29 -6 -56.5 -8t-53.5 -2q-117 0 -221.5 45t-169.5 133q-33 53 -46.5 105t-13.5 110zM678 1802l317 217l248 -217l-86 -59l-180 158l-234 -158z" />
<glyph unicode="&#xdc;" horiz-adv-x="1351" d="M221 373q0 49 7.5 100t15.5 107l151 964h99l-148 -934q-2 -20 -5 -37.5t-7 -35.5q-4 -37 -7 -73t-3 -71q0 -47 9 -92t32 -82q35 -57 101 -92t138 -49q20 -4 42 -6t42 -2q33 0 70 5t73 15q63 18 123 50t103 79q61 66 87.5 151t43.5 173q2 16 5 32.5t5 32.5v2l148 934h98 l-152 -962q0 -4 -1 -6.5t-1 -6.5q-18 -115 -48 -216t-122 -195q-70 -68 -158 -111t-180 -57q-29 -6 -56.5 -8t-53.5 -2q-117 0 -221.5 45t-169.5 133q-33 53 -46.5 105t-13.5 110zM702 1882v3t3 3v3v3q4 35 32.5 58.5t61.5 23.5v2q31 -2 51 -22.5t18 -50.5v-4v-3.5v-3.5 q-6 -33 -33.5 -57.5t-62.5 -24.5q-31 0 -50.5 20.5t-19.5 49.5zM1085 1882v3t2 3v3v3q4 35 33 58.5t62 23.5v2q31 -2 51 -22.5t18 -50.5v-4v-3.5v-3.5q-6 -33 -33.5 -57.5t-62.5 -24.5q-31 0 -50.5 20.5t-19.5 49.5z" />
<glyph unicode="&#xdd;" horiz-adv-x="634" />
<glyph unicode="&#xde;" horiz-adv-x="966" d="M166 0l244 1544h98l-51 -327h174q90 -2 173 -16.5t146 -76.5q49 -47 73 -110.5t24 -134.5v-17.5t-3 -17.5q0 -10 -1 -18.5t-3 -18.5q-2 -16 -6 -32.5t-10 -33.5q-20 -68 -61 -132t-101 -107q-55 -43 -117.5 -63.5t-126.5 -28.5q-29 -4 -58.5 -5.5t-57.5 -1.5l-174 3 l-64 -406h-98zM342 498h178q76 -2 145.5 13t139.5 69q59 47 93 105t44 126q2 14 3 27.5t1 27.5q0 57 -20.5 108.5t-61.5 86.5q-45 39 -104.5 50t-122.5 11h-16.5h-16.5l-162 2z" />
<glyph unicode="&#xdf;" horiz-adv-x="1093" d="M158 0l137 860h-100l12 86h100l62 385q2 10 4 24.5t6 26.5q10 57 33.5 113.5t68.5 101.5q41 43 96.5 71t110.5 38q23 4 43.5 6t40.5 2q127 0 203 -76.5t74 -195.5v-28.5t-5 -31.5q-14 -92 -73.5 -168.5t-149.5 -109.5l-2 -2q145 -43 225 -169t80 -280q0 -20 -1 -41.5 t-5 -44.5q-37 -233 -227.5 -396t-419.5 -183l14 86q195 27 352.5 162t188.5 331q4 23 5 43.5t1 40.5q0 170 -108.5 275.5t-284.5 124.5l14 88q115 0 199 68.5t102 185.5q2 10 3 21t1 20q-2 90 -61 142t-154 52q-16 0 -31.5 -2t-31.5 -6q-43 -8 -82 -30.5t-68 -59.5 q-20 -29 -33.5 -63.5t-21.5 -71.5q-8 -27 -12 -51.5t-8 -47.5l-205 -1296h-92z" />
<glyph unicode="&#xe0;" horiz-adv-x="1146" d="M133 383q0 23 3 46.5t5 47.5q33 207 180.5 347.5t360.5 140.5q109 0 200 -47.5t136 -137.5l4 2l25 164h92l-150 -946h-92l27 170h-4q-49 -70 -126 -116t-161 -62q-27 -6 -53.5 -9t-51.5 -3q-190 0 -292.5 114.5t-102.5 288.5zM227 399q0 -137 82 -236.5t232 -99.5 q182 0 297.5 127t142.5 297q4 18 5 37t1 35q0 139 -86 229.5t-237 90.5v2q-162 -2 -284 -126t-147 -278q-2 -20 -4 -39.5t-2 -38.5zM633 1423l131 39l160 -301l-84 -35z" />
<glyph unicode="&#xe1;" horiz-adv-x="1146" d="M133 383q0 23 3 46.5t5 47.5q33 207 180.5 347.5t360.5 140.5q109 0 200 -47.5t136 -137.5l4 2l25 164h92l-150 -946h-92l27 170h-4q-49 -70 -126 -116t-161 -62q-27 -6 -53.5 -9t-51.5 -3q-190 0 -292.5 114.5t-102.5 288.5zM227 399q0 -137 82 -236.5t232 -99.5 q182 0 297.5 127t142.5 297q4 18 5 37t1 35q0 139 -86 229.5t-237 90.5v2q-162 -2 -284 -126t-147 -278q-2 -20 -4 -39.5t-2 -38.5zM592 1161l254 301l119 -39l-301 -297z" />
<glyph unicode="&#xe2;" horiz-adv-x="1146" d="M133 383q0 23 3 46.5t5 47.5q33 207 180.5 347.5t360.5 140.5q109 0 200 -47.5t136 -137.5l4 2l25 164h92l-150 -946h-92l27 170h-4q-49 -70 -126 -116t-161 -62q-27 -6 -53.5 -9t-51.5 -3q-190 0 -292.5 114.5t-102.5 288.5zM227 399q0 -137 82 -236.5t232 -99.5 q182 0 297.5 127t142.5 297q4 18 5 37t1 35q0 139 -86 229.5t-237 90.5v2q-162 -2 -284 -126t-147 -278q-2 -20 -4 -39.5t-2 -38.5zM481 1204l318 217l248 -217l-86 -59l-181 158l-233 -158z" />
<glyph unicode="&#xe3;" horiz-adv-x="1146" d="M133 383q0 23 3 46.5t5 47.5q33 207 180.5 347.5t360.5 140.5q109 0 200 -47.5t136 -137.5l4 2l25 164h92l-150 -946h-92l27 170h-4q-49 -70 -126 -116t-161 -62q-27 -6 -53.5 -9t-51.5 -3q-190 0 -292.5 114.5t-102.5 288.5zM227 399q0 -137 82 -236.5t232 -99.5 q182 0 297.5 127t142.5 297q4 18 5 37t1 35q0 139 -86 229.5t-237 90.5v2q-162 -2 -284 -126t-147 -278q-2 -20 -4 -39.5t-2 -38.5zM475 1245q29 47 76 88t104 41q33 0 65 -10t60 -25q4 0 7.5 -1t5.5 -3q6 -2 11 -4t9 -4q27 -12 52.5 -22.5t49.5 -10.5q37 0 67 26t46 58 l51 -43q-18 -51 -64 -88t-97 -45q-6 -2 -12.5 -2h-12.5q-27 0 -59.5 13.5t-67.5 27.5q-14 6 -28.5 12.5t-28.5 12.5q-20 8 -39 12t-37 4q-39 0 -62.5 -25.5t-40.5 -58.5v2z" />
<glyph unicode="&#xe4;" horiz-adv-x="1146" d="M133 383q0 23 3 46.5t5 47.5q33 207 180.5 347.5t360.5 140.5q109 0 200 -47.5t136 -137.5l4 2l25 164h92l-150 -946h-92l27 170h-4q-49 -70 -126 -116t-161 -62q-27 -6 -53.5 -9t-51.5 -3q-190 0 -292.5 114.5t-102.5 288.5zM227 399q0 -137 82 -236.5t232 -99.5 q182 0 297.5 127t142.5 297q4 18 5 37t1 35q0 139 -86 229.5t-237 90.5v2q-162 -2 -284 -126t-147 -278q-2 -20 -4 -39.5t-2 -38.5zM506 1286v3v3v2v2q6 35 34.5 58.5t61.5 23.5v2q31 -2 50.5 -22.5t19.5 -48.5v-3v-3q-2 -2 -2 -3.5v-3.5q-4 -33 -32 -57.5t-63 -24.5 q-31 0 -51 20.5t-18 51.5zM889 1286v3v3v2v2q6 35 34.5 58.5t61.5 23.5v2q31 -2 50.5 -22.5t19.5 -48.5v-3v-3q-2 -2 -2 -3.5v-3.5q-4 -33 -32 -57.5t-63 -24.5q-31 0 -51 20.5t-18 51.5z" />
<glyph unicode="&#xe5;" horiz-adv-x="1146" d="M133 383q0 23 3 46.5t5 47.5q33 207 180.5 347.5t360.5 140.5q109 0 200 -47.5t136 -137.5l4 2l25 164h92l-150 -946h-92l27 170h-4q-49 -70 -126 -116t-161 -62q-27 -6 -53.5 -9t-51.5 -3q-190 0 -292.5 114.5t-102.5 288.5zM227 399q0 -137 82 -236.5t232 -99.5 q182 0 297.5 127t142.5 297q4 18 5 37t1 35q0 139 -86 229.5t-237 90.5v2q-162 -2 -284 -126t-147 -278q-2 -20 -4 -39.5t-2 -38.5zM596 1255v7.5v7.5q0 2 1 6t1 6q12 74 72.5 126t134.5 52v2q66 -2 108.5 -45t42.5 -106v-7.5v-7.5t-1 -7t-1 -7q-10 -74 -70.5 -126 t-133.5 -52q-68 0 -111 44t-43 107zM678 1266q2 -33 25.5 -56.5t58.5 -23.5q41 0 72.5 28.5t37.5 67.5v4t2 4v4v4q-2 35 -24.5 57.5t-56.5 22.5v2q-39 -2 -73 -29.5t-40 -68.5v-4v-4q-2 -2 -2 -4v-4z" />
<glyph unicode="&#xe6;" horiz-adv-x="1738" d="M82 229q0 10 1 21.5t3 21.5q20 123 116.5 191.5t209.5 91.5q35 8 68.5 11t64.5 3q84 0 157.5 -20.5t131.5 -79.5q4 29 7 57.5t3 55.5q0 127 -64.5 212t-216.5 85q-27 0 -55.5 -3.5t-54.5 -9.5q-55 -10 -110.5 -29.5t-111.5 -43.5l17 96q84 39 172 57.5t176 18.5 q133 0 218 -69t110 -194q63 106 168.5 175t220.5 84q14 2 27.5 3t27.5 1q190 0 288.5 -121t98.5 -291q0 -23 -2 -46.5t-6 -45.5l-821 2q-2 -18 -3 -33.5t-1 -32.5q0 -137 81.5 -235.5t231.5 -98.5q109 0 207 60.5t166 152.5v3l69 -54q-88 -113 -207.5 -179t-252.5 -66 q-119 0 -218.5 60t-132.5 171l-4 2q-39 -98 -127 -151.5t-184 -69.5q-31 -6 -60.5 -9t-58.5 -3q-12 0 -26.5 1t-26.5 1q-111 12 -204 70.5t-93 176.5zM176 240q0 -90 69.5 -128t155.5 -46q12 0 26.5 -1.5t27.5 -1.5q29 0 60.5 4.5t64.5 12.5q78 20 144.5 67.5t78.5 126.5 q2 10 2 17.5v15.5q0 84 -67.5 124t-147.5 48q-14 2 -28.5 3t-29.5 1v2q-27 -2 -56.5 -5t-59.5 -7q-82 -16 -152.5 -62t-85.5 -137q-2 -8 -2 -17v-17zM938 547v2h729v5v5q0 127 -86 223.5t-221 96.5q-143 0 -265 -99.5t-157 -232.5z" />
<glyph unicode="&#xe7;" horiz-adv-x="976" d="M133 387q0 20 3 42t5 44q33 207 195 349.5t371 142.5q92 0 170.5 -29t140.5 -88v2l-21 -123q-55 72 -130.5 112t-178.5 40q-168 0 -299 -122t-156 -284q-2 -16 -4 -33.5t-2 -33.5q0 -139 90.5 -241t239.5 -102h11h12q96 6 188 51.5t164 118.5l-19 -122 q-74 -59 -157.5 -91t-169.5 -38q-10 -2 -19.5 -2h-19.5q-186 0 -300 115.5t-114 291.5zM283 -336l237 295l107 -45l-273 -289z" />
<glyph unicode="&#xe8;" horiz-adv-x="1044" d="M133 381q0 23 3 46.5t5 45.5q31 199 180.5 345.5t356.5 146.5q188 0 285.5 -116t97.5 -286q0 -25 -2 -49.5t-6 -50.5v2h-822q-4 -25 -6 -46.5t-2 -43.5q0 -143 90 -227.5t234 -84.5q111 0 207 60.5t161 155.5l70 -43q-82 -125 -204 -190.5t-261 -65.5 q-186 0 -286.5 116.5t-100.5 284.5zM246 549v2h729v2v2v2v2q0 127 -83 223.5t-226 96.5t-265 -98.5t-155 -231.5zM582 1423l131 39l159 -301l-84 -35z" />
<glyph unicode="&#xe9;" horiz-adv-x="1044" d="M133 381q0 23 3 46.5t5 45.5q31 199 180.5 345.5t356.5 146.5q188 0 285.5 -116t97.5 -286q0 -25 -2 -49.5t-6 -50.5v2h-822q-4 -25 -6 -46.5t-2 -43.5q0 -143 90 -227.5t234 -84.5q111 0 207 60.5t161 155.5l70 -43q-82 -125 -204 -190.5t-261 -65.5 q-186 0 -286.5 116.5t-100.5 284.5zM246 549v2h729v2v2v2v2q0 127 -83 223.5t-226 96.5t-265 -98.5t-155 -231.5zM541 1161l254 301l118 -39l-301 -297z" />
<glyph unicode="&#xea;" horiz-adv-x="1044" d="M133 381q0 23 3 46.5t5 45.5q31 199 180.5 345.5t356.5 146.5q188 0 285.5 -116t97.5 -286q0 -25 -2 -49.5t-6 -50.5v2h-822q-4 -25 -6 -46.5t-2 -43.5q0 -143 90 -227.5t234 -84.5q111 0 207 60.5t161 155.5l70 -43q-82 -125 -204 -190.5t-261 -65.5 q-186 0 -286.5 116.5t-100.5 284.5zM246 549v2h729v2v2v2v2q0 127 -83 223.5t-226 96.5t-265 -98.5t-155 -231.5zM430 1204l318 217l247 -217l-86 -59l-180 158l-233 -158z" />
<glyph unicode="&#xeb;" horiz-adv-x="1044" d="M133 381q0 23 3 46.5t5 45.5q31 199 180.5 345.5t356.5 146.5q188 0 285.5 -116t97.5 -286q0 -25 -2 -49.5t-6 -50.5v2h-822q-4 -25 -6 -46.5t-2 -43.5q0 -143 90 -227.5t234 -84.5q111 0 207 60.5t161 155.5l70 -43q-82 -125 -204 -190.5t-261 -65.5 q-186 0 -286.5 116.5t-100.5 284.5zM246 549v2h729v2v2v2v2q0 127 -83 223.5t-226 96.5t-265 -98.5t-155 -231.5zM455 1286v3v3v2v2q6 35 34.5 58.5t61.5 23.5v2q31 -2 50.5 -22.5t19.5 -48.5v-3v-3q-2 -2 -2.5 -3.5t-0.5 -3.5q-4 -33 -31.5 -57.5t-62.5 -24.5 q-31 0 -51 20.5t-18 51.5zM838 1286v3v3v2v2q6 35 34.5 58.5t61.5 23.5v2q31 -2 50.5 -22.5t19.5 -48.5v-3v-3q-2 -2 -2.5 -3.5t-0.5 -3.5q-4 -33 -31.5 -57.5t-62.5 -24.5q-31 0 -51 20.5t-18 51.5z" />
<glyph unicode="&#xec;" horiz-adv-x="479" d="M193 0l149 946h92l-149 -946h-92zM299 1423l131 39l160 -301l-84 -35z" />
<glyph unicode="&#xed;" horiz-adv-x="479" d="M193 0l149 946h92l-149 -946h-92zM258 1161l254 301l119 -39l-301 -297z" />
<glyph unicode="&#xee;" horiz-adv-x="479" d="M147 1204l318 217l248 -217l-86 -59l-181 158l-233 -158zM193 0l149 946h92l-149 -946h-92z" />
<glyph unicode="&#xef;" horiz-adv-x="479" d="M172 1286v3v3v2v2q6 35 35 58.5t61 23.5v2q31 -2 50.5 -22.5t19.5 -48.5v-3v-3q-2 -2 -2 -3.5v-3.5q-4 -33 -32 -57.5t-62 -24.5q-31 0 -51.5 20.5t-18.5 51.5zM193 0l149 946h92l-149 -946h-92zM555 1286v3v3v2v2q6 35 34.5 58.5t61.5 23.5v2q31 -2 50.5 -22.5 t19.5 -48.5v-3v-3q-2 -2 -2 -3.5v-3.5q-4 -33 -32 -57.5t-62 -24.5q-31 0 -51.5 20.5t-18.5 51.5z" />
<glyph unicode="&#xf0;" horiz-adv-x="1120" d="M145 395q0 18 2.5 37t4.5 37q33 205 199.5 350.5t371.5 145.5q86 0 147.5 -21.5t116.5 -64.5q6 -4 13.5 -9.5t13.5 -11.5l4 6q-39 137 -104.5 265t-172.5 235v2l-358 -233l-43 69l342 223q-10 8 -21.5 19.5l-23.5 23.5q-27 23 -54.5 45.5t-58.5 42.5q-29 20 -57.5 39 t-52.5 33l75 62q76 -47 146 -99.5t133 -111.5l315 211l41 -66l-299 -197q23 -23 48.5 -52t50.5 -66q39 -53 75.5 -121t63.5 -141q29 -84 51.5 -174.5t22.5 -204.5q0 -41 -3.5 -85t-11.5 -94q-31 -193 -181 -351t-376 -158q-186 0 -303 120.5t-117 294.5zM240 406 q0 -141 92 -242t241 -101v3q168 -2 298 120.5t155 282.5q4 27 6 51.5t2 46.5q0 164 -95 238t-237 74q-168 0 -300 -123t-158 -287q-2 -8 -3 -16.5t-1 -14.5v-16v-16z" />
<glyph unicode="&#xf1;" horiz-adv-x="1003" d="M158 0l149 946h92l-22 -147h4q53 76 134 121t173 45q145 0 202.5 -69t57.5 -189q0 -31 -3 -66t-9 -72l-90 -569h-92l90 571q6 33 9 66t3 63q0 78 -39 128.5t-151 50.5q-158 0 -229.5 -108.5t-100.5 -238.5q-4 -16 -7 -33.5t-5 -33.5l-74 -465h-92zM403 1245q29 47 76 88 t105 41q33 0 64.5 -10t60.5 -25q4 0 7 -1t5 -3q6 -2 11 -4t9 -4q27 -12 52.5 -22.5t50.5 -10.5q37 0 66.5 26t45.5 58l52 -43q-18 -51 -64.5 -88t-97.5 -45q-6 -2 -12.5 -2h-12.5q-27 0 -59.5 13.5t-67.5 27.5q-14 6 -28.5 12.5t-28.5 12.5q-20 8 -38.5 12t-37.5 4 q-39 0 -62.5 -25.5t-39.5 -58.5v2z" />
<glyph unicode="&#xf2;" horiz-adv-x="1120" d="M133 395q0 18 2 37t4 37q33 205 200 350.5t372 145.5v2q188 -2 307 -119t119 -299q0 -18 -1 -37.5t-6 -40.5q-33 -211 -200.5 -351t-376.5 -140q-186 0 -303 120.5t-117 294.5zM227 406q0 -141 92.5 -242t241.5 -101q174 0 311.5 117t163.5 289q4 18 5 35.5t1 34.5 q-2 150 -98 245t-254 95v2q-168 -2 -300 -125t-159 -287q-2 -8 -3 -16.5t-1 -14.5v-16v-16zM618 1423l132 39l159 -301l-84 -35z" />
<glyph unicode="&#xf3;" horiz-adv-x="1120" d="M133 395q0 18 2 37t4 37q33 205 200 350.5t372 145.5v2q188 -2 307 -119t119 -299q0 -18 -1 -37.5t-6 -40.5q-33 -211 -200.5 -351t-376.5 -140q-186 0 -303 120.5t-117 294.5zM227 406q0 -141 92.5 -242t241.5 -101q174 0 311.5 117t163.5 289q4 18 5 35.5t1 34.5 q-2 150 -98 245t-254 95v2q-168 -2 -300 -125t-159 -287q-2 -8 -3 -16.5t-1 -14.5v-16v-16zM578 1161l253 301l119 -39l-301 -297z" />
<glyph unicode="&#xf4;" horiz-adv-x="1120" d="M133 395q0 18 2 37t4 37q33 205 200 350.5t372 145.5v2q188 -2 307 -119t119 -299q0 -18 -1 -37.5t-6 -40.5q-33 -211 -200.5 -351t-376.5 -140q-186 0 -303 120.5t-117 294.5zM227 406q0 -141 92.5 -242t241.5 -101q174 0 311.5 117t163.5 289q4 18 5 35.5t1 34.5 q-2 150 -98 245t-254 95v2q-168 -2 -300 -125t-159 -287q-2 -8 -3 -16.5t-1 -14.5v-16v-16zM469 1204l317 217l248 -217l-86 -59l-180 158l-233 -158z" />
<glyph unicode="&#xf5;" horiz-adv-x="1120" d="M133 395q0 18 2 37t4 37q33 205 200 350.5t372 145.5v2q188 -2 307 -119t119 -299q0 -18 -1 -37.5t-6 -40.5q-33 -211 -200.5 -351t-376.5 -140q-186 0 -303 120.5t-117 294.5zM227 406q0 -141 92.5 -242t241.5 -101q174 0 311.5 117t163.5 289q4 18 5 35.5t1 34.5 q-2 150 -98 245t-254 95v2q-168 -2 -300 -125t-159 -287q-2 -8 -3 -16.5t-1 -14.5v-16v-16zM461 1245q29 47 76 88t104 41q33 0 64.5 -10t60.5 -25q4 0 7 -1t5 -3q6 -2 11.5 -4t9.5 -4q27 -12 52.5 -22.5t49.5 -10.5q37 0 66.5 26t46.5 58l51 -43q-18 -51 -64.5 -88 t-97.5 -45q-6 -2 -12 -2h-12q-27 0 -60 13.5t-67 27.5q-14 6 -28.5 12.5t-29.5 12.5q-20 8 -38.5 12t-37.5 4q-39 0 -62.5 -25.5t-39.5 -58.5v2z" />
<glyph unicode="&#xf6;" horiz-adv-x="1120" d="M133 395q0 18 2 37t4 37q33 205 200 350.5t372 145.5v2q188 -2 307 -119t119 -299q0 -18 -1 -37.5t-6 -40.5q-33 -211 -200.5 -351t-376.5 -140q-186 0 -303 120.5t-117 294.5zM227 406q0 -141 92.5 -242t241.5 -101q174 0 311.5 117t163.5 289q4 18 5 35.5t1 34.5 q-2 150 -98 245t-254 95v2q-168 -2 -300 -125t-159 -287q-2 -8 -3 -16.5t-1 -14.5v-16v-16zM492 1286v3v3v2v2q6 35 34.5 58.5t61.5 23.5v2q31 -2 50 -22.5t19 -48.5v-3v-3q-2 -2 -2 -3.5v-3.5q-4 -33 -31.5 -57.5t-62.5 -24.5q-31 0 -51.5 20.5t-17.5 51.5zM874 1286v3v3v2 v2q6 35 35 58.5t62 23.5v2q31 -2 50 -22.5t19 -48.5v-3v-3q-2 -2 -2 -3.5v-3.5q-4 -33 -31.5 -57.5t-62.5 -24.5q-31 0 -51.5 20.5t-18.5 51.5z" />
<glyph unicode="&#xf7;" horiz-adv-x="634" />
<glyph unicode="&#xf8;" horiz-adv-x="1120" d="M57 35l144 125q-33 47 -50.5 109.5t-17.5 127.5v18.5t2 18.5q0 8 1 17.5t3 17.5q33 205 200 350.5t372 145.5q86 0 163.5 -28t137.5 -83v2l143 127l47 -59l-141 -121q39 -53 57.5 -117.5t18.5 -134.5q0 -20 -1 -39.5t-6 -40.5q-33 -211 -199.5 -351t-377.5 -140 q-88 0 -168 32.5t-137 89.5l-146 -122zM227 395.5q0 -10.5 2 -18.5q4 -43 16.5 -83t33.5 -73v2l653 572q-47 41 -108.5 62.5t-131.5 21.5q-168 0 -301 -123t-160 -287q-2 -14 -3 -27.5t-1 -27.5v-18.5zM324 164q45 -47 107.5 -74t131.5 -27q172 0 309.5 117t163.5 289 q4 18 5 36.5t1 37.5q0 53 -15 102t-46 94v2z" />
<glyph unicode="&#xf9;" horiz-adv-x="966" d="M186 229q0 37 5.5 74t11.5 74l90 569h92l-84 -534q-6 -41 -10 -77t-4 -69q0 -88 42 -145.5t165 -57.5q170 0 226 104.5t77 242.5l84 536h92l-90 -567q-10 -74 -28.5 -144.5t-72.5 -130.5q-45 -49 -105.5 -77.5t-121.5 -40.5q-20 -2 -38.5 -4t-37.5 -2q-80 0 -150.5 30.5 t-111.5 93.5q-16 29 -23.5 61t-7.5 64zM543 1423l131 39l160 -301l-84 -35z" />
<glyph unicode="&#xfa;" horiz-adv-x="966" d="M186 229q0 37 5.5 74t11.5 74l90 569h92l-84 -534q-6 -41 -10 -77t-4 -69q0 -88 42 -145.5t165 -57.5q170 0 226 104.5t77 242.5l84 536h92l-90 -567q-10 -74 -28.5 -144.5t-72.5 -130.5q-45 -49 -105.5 -77.5t-121.5 -40.5q-20 -2 -38.5 -4t-37.5 -2q-80 0 -150.5 30.5 t-111.5 93.5q-16 29 -23.5 61t-7.5 64zM502 1161l254 301l118 -39l-301 -297z" />
<glyph unicode="&#xfb;" horiz-adv-x="966" d="M186 229q0 37 5.5 74t11.5 74l90 569h92l-84 -534q-6 -41 -10 -77t-4 -69q0 -88 42 -145.5t165 -57.5q170 0 226 104.5t77 242.5l84 536h92l-90 -567q-10 -74 -28.5 -144.5t-72.5 -130.5q-45 -49 -105.5 -77.5t-121.5 -40.5q-20 -2 -38.5 -4t-37.5 -2q-80 0 -150.5 30.5 t-111.5 93.5q-16 29 -23.5 61t-7.5 64zM391 1204l318 217l247 -217l-86 -59l-180 158l-233 -158z" />
<glyph unicode="&#xfc;" horiz-adv-x="966" d="M186 229q0 37 5.5 74t11.5 74l90 569h92l-84 -534q-6 -41 -10 -77t-4 -69q0 -88 42 -145.5t165 -57.5q170 0 226 104.5t77 242.5l84 536h92l-90 -567q-10 -74 -28.5 -144.5t-72.5 -130.5q-45 -49 -105.5 -77.5t-121.5 -40.5q-20 -2 -38.5 -4t-37.5 -2q-80 0 -150.5 30.5 t-111.5 93.5q-16 29 -23.5 61t-7.5 64zM416 1286v3v3v2v2q6 35 34.5 58.5t61.5 23.5v2q31 -2 50.5 -22.5t19.5 -48.5v-3v-3q-2 -2 -2 -3.5v-3.5q-4 -33 -32 -57.5t-63 -24.5q-31 0 -51 20.5t-18 51.5zM799 1286v3v3v2v2q6 35 34.5 58.5t61.5 23.5v2q31 -2 50.5 -22.5 t19.5 -48.5v-3v-3q-2 -2 -2 -3.5v-3.5q-4 -33 -32 -57.5t-63 -24.5q-31 0 -51 20.5t-18 51.5z" />
<glyph unicode="&#xfd;" horiz-adv-x="634" />
<glyph unicode="&#xfe;" horiz-adv-x="1146" d="M70 -553l356 2243h92l-145 -914h4q49 66 126 112t161 64q27 6 53 9.5t51 3.5q190 0 292.5 -117t102.5 -291q0 -23 -2 -46.5t-6 -47.5q-33 -207 -180.5 -345t-360.5 -138q-109 0 -199.5 46t-133.5 136l-5 2l-114 -717h-92zM309 377q0 -137 86 -225.5t236 -88.5 q166 0 285.5 120t146.5 278q4 20 5 39.5t1 40.5q0 139 -81 238.5t-232 99.5v2q-180 -2 -296 -131t-145 -299q-2 -18 -4 -37t-2 -37z" />
<glyph unicode="&#xff;" horiz-adv-x="942" d="M125 -553l313 537l-303 962h96l269 -856l497 856h95l-873 -1499h-94zM403 1286v3v3v2v2q6 35 35 58.5t62 23.5v2q31 -2 50 -22.5t19 -48.5v-3v-3q-2 -2 -2 -3.5v-3.5q-4 -33 -31.5 -57.5t-62.5 -24.5q-31 0 -51.5 20.5t-18.5 51.5zM786 1286v3v3v2v2q6 35 35 58.5 t62 23.5v2q31 -2 50 -22.5t19 -48.5v-3v-3q-2 -2 -2 -3.5v-3.5q-4 -33 -31.5 -57.5t-62.5 -24.5q-31 0 -51.5 20.5t-18.5 51.5z" />
<glyph unicode="&#x152;" horiz-adv-x="2443" d="M186 645q0 16 1 31.5t1 32.5q2 14 4.5 30.5t4.5 30.5q53 330 328.5 561.5t602.5 231.5q213 0 384 -115t235 -307l4 2l64 401h737l-15 -92h-639l-88 -561h625l-14 -92h-625l-113 -707h639l-14 -92h-737l63 397h-4q-106 -170 -281 -277.5t-364 -131.5q-29 -4 -58.5 -6 t-58.5 -2q-152 0 -287 58t-229 163q-82 90 -124 204.5t-42 239.5zM287 659q0 -111 36.5 -211t106.5 -178q80 -94 201 -147t256 -53q23 0 44 1t44 5q119 14 235.5 69.5t212.5 141.5q109 98 178.5 222t90.5 261q4 29 6 55.5t2 53.5q0 248 -164 419.5t-424 171.5v3 q-285 -2 -528.5 -209t-288.5 -494q-4 -27 -6 -54.5t-2 -56.5z" />
<glyph unicode="&#x153;" horiz-adv-x="1935" d="M133 391q0 18 2 38l4 40q35 211 205 353.5t377 142.5q139 0 248.5 -74t146.5 -201q70 131 193 203t260 72q190 0 286.5 -113t96.5 -283q0 -27 -2 -52t-6 -54v2h-818q-4 -23 -7 -44.5t-1 -41.5q0 -135 88 -225.5t230 -90.5q117 0 210 58.5t158 161.5l70 -45 q-80 -127 -201 -192.5t-260 -65.5q-135 0 -236.5 75.5t-129.5 200.5q-74 -115 -193 -188.5t-248 -85.5q-12 0 -23.5 -1t-23.5 -1q-186 0 -306 116.5t-120 294.5zM227 401q0 -139 95.5 -238.5t242.5 -99.5q170 0 306.5 119t162.5 287q4 16 5 33.5t1 34.5q-2 141 -93 241.5 t-242 100.5v2q-176 -2 -310.5 -123t-163.5 -295q-2 -14 -3 -29.5t-1 -32.5zM1141 549v2h725v2v2v2v2q0 127 -83 223.5t-227 96.5q-143 0 -262.5 -98.5t-152.5 -231.5z" />
<glyph unicode="&#x178;" horiz-adv-x="1144" d="M252 1544h108l332 -782l578 782h108l-653 -885l-104 -659h-99l105 659zM598 1882v3t2 3v3v3q4 35 33 58.5t61 23.5v2q31 -2 51.5 -22.5t18.5 -50.5v-4v-3.5v-3.5q-6 -33 -34 -57.5t-62 -24.5q-31 0 -50.5 20.5t-19.5 49.5zM981 1882v3t2 3v3v3q4 35 32.5 58.5t61.5 23.5 v2q31 -2 51.5 -22.5t18.5 -50.5v-4v-3.5v-3.5q-6 -33 -34 -57.5t-62 -24.5q-31 0 -50.5 20.5t-19.5 49.5z" />
<glyph unicode="&#x2c6;" horiz-adv-x="899" d="M350 1245q29 47 76 88t104 41q33 0 65 -10t60 -25q4 0 7.5 -1t5.5 -3q6 -2 11 -4t9 -4q27 -12 52.5 -22.5t50.5 -10.5q37 0 66.5 26t45.5 58l51 -43q-18 -51 -64 -88t-97 -45q-6 -2 -12.5 -2h-12.5q-27 0 -59.5 13.5t-67.5 27.5q-14 6 -28.5 12.5t-28.5 12.5 q-20 8 -39 12t-37 4q-39 0 -62.5 -25.5t-39.5 -58.5v2z" />
<glyph unicode="&#x2dc;" horiz-adv-x="872" d="M344 1204l318 217l247 -217l-86 -59l-180 158l-233 -158z" />
<glyph unicode="&#x2000;" horiz-adv-x="1030" />
<glyph unicode="&#x2001;" horiz-adv-x="2060" />
<glyph unicode="&#x2002;" horiz-adv-x="1030" />
<glyph unicode="&#x2003;" horiz-adv-x="2060" />
<glyph unicode="&#x2004;" horiz-adv-x="686" />
<glyph unicode="&#x2005;" horiz-adv-x="515" />
<glyph unicode="&#x2006;" horiz-adv-x="343" />
<glyph unicode="&#x2007;" horiz-adv-x="343" />
<glyph unicode="&#x2008;" horiz-adv-x="257" />
<glyph unicode="&#x2009;" horiz-adv-x="412" />
<glyph unicode="&#x200a;" horiz-adv-x="114" />
<glyph unicode="&#x2010;" horiz-adv-x="389" d="M96 608l15 92h389l-15 -92h-389z" />
<glyph unicode="&#x2011;" horiz-adv-x="389" d="M96 608l15 92h389l-15 -92h-389z" />
<glyph unicode="&#x2012;" horiz-adv-x="389" d="M96 608l15 92h389l-15 -92h-389z" />
<glyph unicode="&#x2013;" horiz-adv-x="1024" d="M96 608l15 92h1024l-15 -92h-1024z" />
<glyph unicode="&#x2014;" horiz-adv-x="2048" d="M96 608l15 92h2048l-15 -92h-2048z" />
<glyph unicode="&#x2018;" horiz-adv-x="530" d="M324 1100l243 465l58 -23l-213 -469z" />
<glyph unicode="&#x2019;" horiz-adv-x="530" d="M324 1096l213 469l88 -27l-244 -465z" />
<glyph unicode="&#x201a;" horiz-adv-x="634" />
<glyph unicode="&#x201c;" horiz-adv-x="798" d="M324 1100l243 465l58 -23l-213 -469zM592 1100l244 465l57 -23l-213 -469z" />
<glyph unicode="&#x201d;" horiz-adv-x="798" d="M324 1096l213 469l88 -27l-244 -465zM592 1096l213 469l88 -27l-244 -465z" />
<glyph unicode="&#x201e;" horiz-adv-x="798" d="M98 -317l215 469l88 -29l-243 -463zM367 -317l215 469l88 -29l-244 -463z" />
<glyph unicode="&#x2022;" d="M367 707v16t2 16q0 6 1 14.5t3 16.5q25 160 153.5 273.5t294.5 113.5v2q150 -2 239 -95t89 -233v-19t-2 -21v-9.5t-2 -11.5q-27 -158 -154 -271.5t-293 -113.5q-150 0 -240.5 93t-90.5 229z" />
<glyph unicode="&#x2026;" horiz-adv-x="2048" d="M268 57v5.5v5.5q6 35 35 59.5t64 24.5v2q33 -2 52 -22.5t19 -49.5v-4v-2q-2 -2 -2 -4v-4q-4 -35 -32.5 -58.5t-63.5 -23.5q-33 0 -53.5 19.5t-18.5 51.5zM950 57v5.5v5.5q6 35 35 59.5t64 24.5v2q33 -2 52 -22.5t19 -49.5v-4v-2q-2 -2 -2 -4v-4q-4 -35 -32.5 -58.5 t-63.5 -23.5q-33 0 -53.5 19.5t-18.5 51.5zM1632 57v5.5v5.5q6 35 35 59.5t64 24.5v2q33 -2 52 -22.5t19 -49.5v-4v-2q-2 -2 -2 -4v-4q-4 -35 -32.5 -58.5t-63.5 -23.5q-33 0 -53.5 19.5t-18.5 51.5z" />
<glyph unicode="&#x202f;" horiz-adv-x="412" />
<glyph unicode="&#x2039;" horiz-adv-x="567" d="M176 655l352 346l52 -55l-293 -291l200 -290l-67 -56z" />
<glyph unicode="&#x203a;" horiz-adv-x="567" d="M195 365l294 290l-202 291l67 55l246 -346l-354 -346z" />
<glyph unicode="&#x205f;" horiz-adv-x="515" />
<glyph unicode="&#x2122;" horiz-adv-x="1925" d="M350 1458l12 86h656l-12 -86h-285l-123 -776h-86l123 776h-285zM1053 682l135 862h147l176 -670h5l389 670h147l-135 -862h-86l123 776h-8l-461 -776h-4l-211 776h-8l-123 -776h-86z" />
<glyph unicode="&#xe000;" horiz-adv-x="942" d="M0 0v942h942v-942h-942z" />
</font>
</defs>
</svg>
